<svg width="18" height="14" viewBox="0 0 18 14" fill="none" xmlns="http://www.w3.org/2000/svg">
<path d="M15.177 14L14.0404 12.0499H6.42857C5.74845 12.0499 5.19876 11.4443 5.19876 10.695V4.45455C5.19876 3.70528 5.74845 3.09971 6.42857 3.09971H16.7702C17.4503 3.09971 18 3.70528 18 4.45455V10.695C18 11.4443 17.4503 12.0499 16.7702 12.0499H16.3043L15.177 14ZM6.42857 3.82845C6.1118 3.82845 5.85093 4.11584 5.85093 4.46481V10.7053C5.85093 11.0543 6.1118 11.3416 6.42857 11.3416H14.3944L15.177 12.676L15.9503 11.3416H16.7702C17.087 11.3416 17.3478 11.0543 17.3478 10.7053V4.45455C17.3478 4.10557 17.087 3.81818 16.7702 3.81818H6.42857V3.82845ZM15.1398 6.72287C15.1398 6.52786 14.9907 6.36364 14.8137 6.36364H8.39441C8.21739 6.36364 8.06832 6.52786 8.06832 6.72287C8.06832 6.91789 8.21739 7.08211 8.39441 7.08211H14.8137C14.9907 7.08211 15.1398 6.91789 15.1398 6.72287ZM14.0683 8.6217C14.0683 8.42669 13.9193 8.26246 13.7422 8.26246H8.38509C8.20807 8.26246 8.05901 8.42669 8.05901 8.6217C8.05901 8.81672 8.20807 8.98094 8.38509 8.98094H13.7422C13.9193 8.98094 14.0683 8.82698 14.0683 8.6217ZM4.74224 8.23167H3.60559L2.82298 9.56598L2.04969 8.23167H1.22981C0.913043 8.23167 0.652174 7.94428 0.652174 7.59531V1.35484C0.652174 1.00586 0.913043 0.718475 1.22981 0.718475H11.5714C11.8882 0.718475 12.1491 1.00586 12.1491 1.35484V2.6173H12.8012V1.35484C12.8012 0.605572 12.2516 0 11.5714 0H1.22981C0.549689 0 0 0.605572 0 1.35484V7.59531C0 8.34457 0.549689 8.95015 1.22981 8.95015H1.69565L2.8323 10.9003L3.96894 8.95015H4.75155V8.23167H4.74224Z" fill="#6A737A"/>
</svg>
