<svg width="22" height="17" viewBox="0 0 22 17" fill="none" xmlns="http://www.w3.org/2000/svg">
<path fill-rule="evenodd" clip-rule="evenodd" d="M1.74622 8.99963V12.9996C1.74622 14.3803 2.8655 15.4996 4.24622 15.4996H18.2462C19.6269 15.4996 20.7462 14.3803 20.7462 12.9996V8.99963H21.7462V12.9996C21.7462 14.9326 20.1792 16.4996 18.2462 16.4996H4.24622C2.31322 16.4996 0.746216 14.9326 0.746216 12.9996V8.99963H1.74622Z" fill="#F5F2F1"/>
<path fill-rule="evenodd" clip-rule="evenodd" d="M14.7818 9.17121L11.5998 12.3532C11.4045 12.5484 11.088 12.5484 10.8927 12.3532L7.71071 9.17121C7.51545 8.97594 7.51545 8.65936 7.71071 8.4641C7.90597 8.26884 8.22255 8.26884 8.41782 8.4641L10.7462 10.7925V-0.000366211H11.7462V10.7925L14.0747 8.4641C14.2699 8.26884 14.5865 8.26884 14.7818 8.4641C14.977 8.65936 14.977 8.97594 14.7818 9.17121Z" fill="#F5F2F1"/>
</svg>
