<svg width="18" height="13" viewBox="0 0 18 13" fill="none" xmlns="http://www.w3.org/2000/svg">
<path d="M8.87196 12.1782C5.77807 12.1782 2.8191 10.224 0.0743447 6.36655C0.0275623 6.3009 0.00164711 6.22228 7.59232e-05 6.14123C-0.00149527 6.06018 0.0213527 5.98057 0.0655546 5.9131C0.215183 5.68424 3.79179 0.304454 8.94879 0.180891C12.1084 0.0961858 15.1259 2.02849 17.9239 5.89775C17.9712 5.96306 17.9977 6.04149 17.9999 6.12253C18.002 6.20357 17.9798 6.28335 17.9362 6.3512C17.7864 6.58396 14.2086 12.0529 9.04758 12.1761C8.98911 12.1774 8.93044 12.1782 8.87196 12.1782ZM0.874091 6.13012C3.461 9.68018 6.20862 11.4475 9.0258 11.3807C13.2076 11.283 16.4005 7.15882 17.1259 6.14041C14.5384 2.64708 11.7885 0.91702 8.97095 0.976277C4.7922 1.07419 1.60237 5.12452 0.874091 6.13012Z" fill="#6A737A"/>
<path d="M9.00003 9.44867C8.36385 9.44867 7.74195 9.25688 7.21299 8.89755C6.68403 8.53823 6.27175 8.02751 6.0283 7.42997C5.78484 6.83244 5.72114 6.17493 5.84525 5.54059C5.96937 4.90625 6.27572 4.32357 6.72556 3.86624C7.17541 3.40891 7.74855 3.09746 8.3725 2.97128C8.99646 2.84511 9.6432 2.90986 10.231 3.15737C10.8187 3.40488 11.3211 3.82402 11.6745 4.36178C12.028 4.89955 12.2166 5.53179 12.2166 6.17856C12.2156 7.04554 11.8764 7.87673 11.2734 8.48978C10.6704 9.10283 9.85282 9.44767 9.00003 9.44867ZM9.00003 3.70422C8.51866 3.70422 8.0481 3.84933 7.64786 4.12122C7.24762 4.3931 6.93567 4.77954 6.75145 5.23167C6.56724 5.68379 6.51905 6.1813 6.61296 6.66128C6.70687 7.14125 6.93867 7.58214 7.27904 7.92818C7.61942 8.27422 8.05309 8.50988 8.52521 8.60535C8.99733 8.70083 9.48669 8.65183 9.93141 8.46455C10.3761 8.27727 10.7563 7.96013 11.0237 7.55323C11.2911 7.14632 11.4339 6.66794 11.4339 6.17856C11.4332 5.52254 11.1765 4.8936 10.7202 4.42973C10.2639 3.96586 9.6453 3.70494 9.00003 3.70422Z" fill="#6A737A"/>
</svg>
