<svg width="23" height="20" viewBox="0 0 23 20" fill="none" xmlns="http://www.w3.org/2000/svg">
<path d="M18.7784 0.578406C16.1484 -0.636694 13.0684 0.118707 11.2284 2.31901C9.38835 0.151507 6.26839 -0.538195 3.63839 0.677005C0.458389 2.18771 -0.891631 5.99731 0.618369 9.18291C2.05837 12.2043 10.6384 19.5607 10.9984 19.8892C11.0584 19.9548 11.1584 19.9877 11.2584 19.9877C11.2884 19.9877 11.3283 19.9877 11.3283 19.9877C11.4583 20.0205 11.5883 19.9877 11.6883 19.8892C12.0483 19.5607 20.5184 12.0729 21.9284 9.05151C23.3784 5.83311 21.9684 2.05631 18.7784 0.578406ZM21.1784 8.69031C20.0284 11.1862 13.3883 17.2619 11.5883 18.8711C11.5183 18.9368 11.4183 18.9696 11.3283 18.9696C11.2283 18.9696 11.1284 18.9368 11.0584 18.8711C9.21843 17.2947 2.51834 11.3176 1.33834 8.82161C0.02834 6.06291 1.20837 2.71311 3.99837 1.43231C4.75837 1.07111 5.57837 0.906905 6.36837 0.906905C8.10837 0.906905 9.8084 1.72791 10.8984 3.23861C10.9584 3.33711 11.0984 3.40281 11.2284 3.40281C11.3584 3.40281 11.4884 3.33711 11.5584 3.23861C13.0984 1.03821 15.9884 0.217208 18.4184 1.33381C21.2084 2.61461 22.4584 5.89871 21.1784 8.69031Z" fill="#40474E"/>
</svg>
