<svg width="28" height="28" viewBox="0 0 28 28" fill="none" xmlns="http://www.w3.org/2000/svg">
<path fill-rule="evenodd" clip-rule="evenodd" d="M22.3333 1.66699H5.66663C3.45749 1.66699 1.66663 3.45785 1.66663 5.66699V22.3337C1.66663 24.5428 3.45748 26.3337 5.66662 26.3337H22.3333C24.5424 26.3337 26.3333 24.5428 26.3333 22.3337V5.66699C26.3333 3.45785 24.5424 1.66699 22.3333 1.66699ZM5.66663 0.666992C2.9052 0.666992 0.666626 2.90557 0.666626 5.66699V22.3337C0.666626 25.0951 2.9052 27.3337 5.66662 27.3337H22.3333C25.0947 27.3337 27.3333 25.0951 27.3333 22.3337V5.66699C27.3333 2.90557 25.0947 0.666992 22.3333 0.666992H5.66663Z" fill="white"/>
<path fill-rule="evenodd" clip-rule="evenodd" d="M22.3333 1.66699H5.66663C3.45749 1.66699 1.66663 3.45785 1.66663 5.66699V22.3337C1.66663 24.5428 3.45748 26.3337 5.66662 26.3337H22.3333C24.5424 26.3337 26.3333 24.5428 26.3333 22.3337V5.66699C26.3333 3.45785 24.5424 1.66699 22.3333 1.66699ZM5.66663 0.666992C2.9052 0.666992 0.666626 2.90557 0.666626 5.66699V22.3337C0.666626 25.0951 2.9052 27.3337 5.66662 27.3337H22.3333C25.0947 27.3337 27.3333 25.0951 27.3333 22.3337V5.66699C27.3333 2.90557 25.0947 0.666992 22.3333 0.666992H5.66663Z" fill="url(#paint0_linear_1_634)"/>
<path fill-rule="evenodd" clip-rule="evenodd" d="M14.4442 20.1112C11.3146 20.1112 8.77757 17.5741 8.77757 14.4445C8.77757 11.3149 11.3146 8.77783 14.4442 8.77783C17.5738 8.77783 20.1109 11.3149 20.1109 14.4445C20.1109 17.5741 17.5738 20.1112 14.4442 20.1112ZM14.4442 21.1112C10.7623 21.1112 7.77757 18.1264 7.77757 14.4445C7.77757 10.7626 10.7623 7.77783 14.4442 7.77783C18.1261 7.77783 21.1109 10.7626 21.1109 14.4445C21.1109 18.1264 18.1261 21.1112 14.4442 21.1112Z" fill="white"/>
<path fill-rule="evenodd" clip-rule="evenodd" d="M14.4442 20.1112C11.3146 20.1112 8.77757 17.5741 8.77757 14.4445C8.77757 11.3149 11.3146 8.77783 14.4442 8.77783C17.5738 8.77783 20.1109 11.3149 20.1109 14.4445C20.1109 17.5741 17.5738 20.1112 14.4442 20.1112ZM14.4442 21.1112C10.7623 21.1112 7.77757 18.1264 7.77757 14.4445C7.77757 10.7626 10.7623 7.77783 14.4442 7.77783C18.1261 7.77783 21.1109 10.7626 21.1109 14.4445C21.1109 18.1264 18.1261 21.1112 14.4442 21.1112Z" fill="url(#paint1_linear_1_634)"/>
<path fill-rule="evenodd" clip-rule="evenodd" d="M21.9996 6.11168C22.4292 6.11168 22.7774 6.4599 22.7774 6.88946C22.7774 7.31901 22.4292 7.66724 21.9996 7.66724C21.5701 7.66724 21.2219 7.31901 21.2219 6.88946C21.2219 6.4599 21.5701 6.11168 21.9996 6.11168ZM21.9996 5.11168C22.9815 5.11168 23.7774 5.90762 23.7774 6.88946C23.7774 7.8713 22.9815 8.66724 21.9996 8.66724C21.0178 8.66724 20.2219 7.8713 20.2219 6.88946C20.2219 5.90762 21.0178 5.11168 21.9996 5.11168Z" fill="white"/>
<path fill-rule="evenodd" clip-rule="evenodd" d="M21.9996 6.11168C22.4292 6.11168 22.7774 6.4599 22.7774 6.88946C22.7774 7.31901 22.4292 7.66724 21.9996 7.66724C21.5701 7.66724 21.2219 7.31901 21.2219 6.88946C21.2219 6.4599 21.5701 6.11168 21.9996 6.11168ZM21.9996 5.11168C22.9815 5.11168 23.7774 5.90762 23.7774 6.88946C23.7774 7.8713 22.9815 8.66724 21.9996 8.66724C21.0178 8.66724 20.2219 7.8713 20.2219 6.88946C20.2219 5.90762 21.0178 5.11168 21.9996 5.11168Z" fill="url(#paint2_linear_1_634)"/>
<defs>
<linearGradient id="paint0_linear_1_634" x1="14" y1="0.666992" x2="14" y2="27.3337" gradientUnits="userSpaceOnUse">
<stop stop-color="white"/>
<stop offset="1" stop-color="white" stop-opacity="0"/>
</linearGradient>
<linearGradient id="paint1_linear_1_634" x1="14.4442" y1="7.77783" x2="14.4442" y2="21.1112" gradientUnits="userSpaceOnUse">
<stop stop-color="white"/>
<stop offset="1" stop-color="white" stop-opacity="0"/>
</linearGradient>
<linearGradient id="paint2_linear_1_634" x1="21.9996" y1="8.66724" x2="21.9996" y2="5.11168" gradientUnits="userSpaceOnUse">
<stop stop-color="white"/>
<stop offset="1" stop-color="white" stop-opacity="0"/>
</linearGradient>
</defs>
</svg>
