<svg width="28" height="28" viewBox="0 0 28 28" fill="none" xmlns="http://www.w3.org/2000/svg">
<path fill-rule="evenodd" clip-rule="evenodd" d="M14.0026 0.666748C10.3814 0.666748 9.92695 0.682582 8.50472 0.747304C7.08526 0.812305 6.11636 1.03703 5.26857 1.36676C4.39162 1.70731 3.64772 2.16287 2.9066 2.90427C2.16493 3.64539 1.70937 4.38929 1.3677 5.26596C1.03714 6.11403 0.812137 7.0832 0.748247 8.50211C0.684636 9.92434 0.667969 10.3791 0.667969 14.0002C0.667969 17.6214 0.68408 18.0744 0.748525 19.4967C0.813804 20.9161 1.03853 21.885 1.36798 22.7328C1.70881 23.6098 2.16437 24.3537 2.90577 25.0948C3.64661 25.8365 4.39051 26.2931 5.26691 26.6337C6.11525 26.9634 7.08442 27.1881 8.50361 27.2531C9.92584 27.3179 10.38 27.3337 14.0009 27.3337C17.6223 27.3337 18.0754 27.3179 19.4976 27.2531C20.9171 27.1881 21.8871 26.9634 22.7354 26.6337C23.6121 26.2931 24.3549 25.8365 25.0957 25.0948C25.8374 24.3537 26.293 23.6098 26.6346 22.7331C26.9624 21.885 27.1874 20.9158 27.2541 19.4969C27.318 18.0747 27.3346 17.6214 27.3346 14.0002C27.3346 10.3791 27.318 9.92462 27.2541 8.50238C27.1874 7.08293 26.9624 6.11403 26.6346 5.26624C26.293 4.38929 25.8374 3.64539 25.0957 2.90427C24.354 2.1626 23.6124 1.70704 22.7346 1.36676C21.8846 1.03703 20.9151 0.812305 19.4957 0.747304C18.0734 0.682582 17.6206 0.666748 13.9984 0.666748H14.0026ZM12.8064 3.06955C13.1614 3.069 13.5575 3.06955 14.0026 3.06955C17.5626 3.06955 17.9845 3.08233 19.3904 3.14622C20.6904 3.20566 21.396 3.42289 21.866 3.60539C22.4882 3.84706 22.9318 4.13595 23.3982 4.60262C23.8649 5.06929 24.1538 5.51374 24.396 6.13597C24.5785 6.60542 24.796 7.31098 24.8552 8.611C24.9191 10.0166 24.9329 10.4388 24.9329 13.9972C24.9329 17.5555 24.9191 17.9778 24.8552 19.3833C24.7957 20.6833 24.5785 21.3889 24.396 21.8584C24.1543 22.4806 23.8649 22.9236 23.3982 23.39C22.9315 23.8567 22.4885 24.1456 21.866 24.3873C21.3965 24.5706 20.6904 24.7873 19.3904 24.8467C17.9848 24.9106 17.5626 24.9245 14.0026 24.9245C10.4422 24.9245 10.0203 24.9106 8.61472 24.8467C7.3147 24.7867 6.60914 24.5695 6.13886 24.387C5.51663 24.1453 5.07218 23.8564 4.60551 23.3898C4.13884 22.9231 3.84995 22.4798 3.60772 21.8572C3.42522 21.3878 3.20772 20.6822 3.14855 19.3822C3.08466 17.9767 3.07188 17.5544 3.07188 13.9938C3.07188 10.4332 3.08466 10.0132 3.14855 8.60766C3.208 7.30765 3.42522 6.60209 3.60772 6.13208C3.84939 5.50985 4.13884 5.0654 4.60551 4.59873C5.07218 4.13206 5.51663 3.84317 6.13886 3.60095C6.60886 3.41761 7.3147 3.20094 8.61472 3.14122C9.84473 3.08566 10.3214 3.069 12.8064 3.06622V3.06955ZM21.1198 5.28346C20.2365 5.28346 19.5198 5.9993 19.5198 6.88292C19.5198 7.76627 20.2365 8.48294 21.1198 8.48294C22.0032 8.48294 22.7199 7.76627 22.7199 6.88292C22.7199 5.99958 22.0032 5.28346 21.1198 5.28346ZM14.0026 7.15293C10.2211 7.15293 7.15526 10.2188 7.15526 14.0002C7.15526 17.7816 10.2211 20.8461 14.0026 20.8461C17.784 20.8461 20.8487 17.7816 20.8487 14.0002C20.8487 10.2188 17.784 7.15293 14.0026 7.15293ZM14.0026 9.55573C16.457 9.55573 18.447 11.5455 18.447 14.0002C18.447 16.4547 16.457 18.4447 14.0026 18.4447C11.5478 18.4447 9.55806 16.4547 9.55806 14.0002C9.55806 11.5455 11.5478 9.55573 14.0026 9.55573Z" fill="#F9F9FA"/>
</svg>
