<svg width="20" height="20" viewBox="0 0 20 20" fill="none" xmlns="http://www.w3.org/2000/svg">
<path fill-rule="evenodd" clip-rule="evenodd" d="M15.3755 14.6666C18.3464 11.3286 18.2316 6.21102 15.0312 3.01059C11.7118 -0.308868 6.32986 -0.308868 3.01041 3.01059C-0.309051 6.33004 -0.309051 11.7119 3.01041 15.0314C6.21152 18.2325 11.3306 18.3466 14.6685 15.3738L18.9223 19.6276L19.6294 18.9205L15.3755 14.6666ZM14.3241 3.7177C17.253 6.64663 17.253 11.3954 14.3241 14.3243C11.3952 17.2532 6.64644 17.2532 3.71751 14.3243C0.78858 11.3954 0.78858 6.64663 3.71751 3.7177C6.64644 0.788763 11.3952 0.788763 14.3241 3.7177Z" fill="#AA182C"/>
</svg>
