<svg width="26" height="47" viewBox="0 0 26 47" fill="none" xmlns="http://www.w3.org/2000/svg">
<path fill-rule="evenodd" clip-rule="evenodd" d="M25 34V13C25 6.37258 19.6274 1 13 1C6.37258 1 1 6.37258 1 13V34C1 40.6274 6.37258 46 13 46C19.6274 46 25 40.6274 25 34ZM13 0C5.8203 0 0 5.8203 0 13V34C0 41.1797 5.8203 47 13 47C20.1797 47 26 41.1797 26 34V13C26 5.8203 20.1797 0 13 0Z" fill="white"/>
<path d="M12 12.5C12 11.6716 12.6716 11 13.5 11C14.3284 11 15 11.6716 15 12.5V16.5C15 17.3284 14.3284 18 13.5 18C12.6716 18 12 17.3284 12 16.5V12.5Z" fill="white"/>
</svg>
