<svg width="28" height="28" viewBox="0 0 28 28" fill="none" xmlns="http://www.w3.org/2000/svg">
<path d="M8.5 11.8824C8.5 9.43482 10.4264 6.5 14.2472 6.5C17.3178 6.5 19.3384 8.88011 19.3383 11.4358C19.3383 14.8158 17.5843 17.3407 14.9993 17.3407C14.1308 17.3407 13.3143 16.8378 13.0347 16.2669C13.0347 16.2669 12.5679 18.2517 12.4694 18.6351C12.1383 19.9228 11.1955 21.2113 11.0358 21.4296C11.0276 21.4407 11.0215 21.4491 11.0176 21.4545C10.962 21.5316 10.8394 21.5074 10.8266 21.4051C10.8255 21.396 10.8237 21.3828 10.8213 21.3656C10.7787 21.0544 10.5594 19.4514 10.8507 18.1312C11.0047 17.4315 11.8849 13.4362 11.8849 13.4362C11.8849 13.4362 11.6285 12.8861 11.6285 12.0728C11.6285 10.796 12.3192 9.84272 13.1792 9.84272C13.9105 9.84272 14.2636 10.4311 14.2636 11.1363C14.2636 11.6391 14.0728 12.3011 13.872 12.9981C13.7583 13.3928 13.6413 13.7988 13.5539 14.1935C13.3521 15.1077 13.9816 15.8532 14.823 15.8532C16.3463 15.8532 17.3724 13.7566 17.3724 11.2724C17.3724 9.3843 16.1859 7.97048 14.0266 7.97048C11.5876 7.97048 10.0671 9.91966 10.0671 12.097C10.0671 12.8476 10.2741 13.3774 10.5979 13.7867C10.7464 13.975 10.7674 14.0507 10.7136 14.2668C10.693 14.3504 10.6589 14.4957 10.6258 14.6366C10.596 14.7634 10.5671 14.8867 10.5496 14.9583C10.496 15.1767 10.3308 15.2544 10.1465 15.1738C9.02361 14.6823 8.5 13.3642 8.5 11.8824Z" fill="white"/>
<path fill-rule="evenodd" clip-rule="evenodd" d="M0.5 5.5C0.5 2.73858 2.73858 0.5 5.5 0.5H22.5C25.2614 0.5 27.5 2.73858 27.5 5.5V22.5C27.5 25.2614 25.2614 27.5 22.5 27.5H5.5C2.73858 27.5 0.5 25.2614 0.5 22.5V5.5ZM5.5 1.5C3.29086 1.5 1.5 3.29086 1.5 5.5V22.5C1.5 24.7091 3.29086 26.5 5.5 26.5H22.5C24.7091 26.5 26.5 24.7091 26.5 22.5V5.5C26.5 3.29086 24.7091 1.5 22.5 1.5H5.5Z" fill="white"/>
</svg>
