<svg width="22" height="22" viewBox="0 0 22 22" fill="none" xmlns="http://www.w3.org/2000/svg">
<path d="M21.97 15.132C21.97 15.12 21.97 15.1079 21.97 15.0959C21.97 15.0845 21.97 15.073 21.97 15.0616C21.97 15.0616 21.97 15.0512 21.97 15.0461L17.85 1.47832C17.85 1.47832 17.85 1.47833 17.85 1.46973C17.84 1.43843 17.82 1.40882 17.8 1.38222V1.37363C17.79 1.34863 17.76 1.32653 17.74 1.30833C17.71 1.29003 17.69 1.27553 17.66 1.26543C17.65 1.26373 17.64 1.26543 17.64 1.26543C17.6 1.24493 17.55 1.23433 17.5 1.23453C17.48 1.23283 17.47 1.23283 17.45 1.23453L13.6 1.94723C13.4 1.30203 12.97 0.751628 12.4 0.400928C11.82 0.0501283 11.14 -0.0765754 10.47 0.0450246C9.80997 0.166625 9.21005 0.527927 8.80005 1.06013C8.38005 1.59233 8.17997 2.25833 8.21997 2.93133L4.38 3.63893L4.34998 3.64923H4.32996C4.29996 3.66033 4.26999 3.67533 4.23999 3.69383L4.22998 3.70413C4.20998 3.72293 4.19004 3.74483 4.17004 3.76943C4.15004 3.79683 4.14 3.82622 4.12 3.85702C4.12 3.85702 4.12 3.85702 4.12 3.86732L0 17.4351C0 17.4351 0 17.4454 0 17.4505C0 17.4619 0 17.4734 0 17.4849C0 17.4969 0 17.5089 0 17.5209C0 17.5209 0 17.5209 0 17.5347C0 18.7189 0.470059 19.8547 1.31006 20.6921C2.15006 21.5295 3.27997 22 4.46997 22C5.64997 22 6.79 21.5295 7.63 20.6921C8.47001 19.8547 8.93994 18.7189 8.93994 17.5347C8.93994 17.5347 8.93994 17.5244 8.93994 17.5209C8.93994 17.5089 8.93994 17.4969 8.93994 17.4849C8.93994 17.4734 8.93994 17.4619 8.93994 17.4505C8.93994 17.4505 8.93994 17.4402 8.93994 17.4351L4.88 4.25033L8.35999 3.60803C8.52999 4.16453 8.87998 4.65063 9.34998 4.99583C9.81998 5.34103 10.39 5.52743 10.97 5.52813C11.14 5.52843 11.31 5.51343 11.47 5.48343C12.13 5.36392 12.72 5.00793 13.14 4.48233C13.55 3.95673 13.76 3.29763 13.72 2.62903L17.02 2.01933L13.0601 15.0461C13.0601 15.0461 13.0601 15.0564 13.0601 15.0616C13.0601 15.073 13.0601 15.0845 13.0601 15.0959C13.0601 15.1079 13.0601 15.12 13.0601 15.132C13.0601 15.132 13.0601 15.132 13.0601 15.1457C13.0601 16.33 13.54 17.4658 14.37 18.3032C15.21 19.1406 16.35 19.611 17.53 19.611C18.72 19.611 19.8499 19.1406 20.6899 18.3032C21.5299 17.4658 22 16.33 22 15.1457C22 15.1457 21.97 15.1354 21.97 15.132ZM21.16 14.8022H13.84L17.5 2.75953L21.16 14.8022ZM4.43994 5.16403L8.09998 17.2066H0.780029L4.43994 5.16403ZM4.43994 21.3285C3.49994 21.3285 2.59002 20.9762 1.90002 20.3407C1.20002 19.7052 0.770054 18.8324 0.680054 17.8936H8.20996C8.11996 18.8324 7.68999 19.7052 6.98999 20.3407C6.29999 20.9762 5.38994 21.3285 4.43994 21.3285ZM11.34 4.80843C10.98 4.87373 10.62 4.84293 10.27 4.71913C10.11 4.65833 9.95005 4.57633 9.80005 4.47533C9.52005 4.28023 9.29 4.01753 9.13 3.71102C9.04 3.53363 8.97994 3.34453 8.93994 3.14943C8.87994 2.78563 8.91004 2.41053 9.04004 2.06403C9.15004 1.76963 9.33006 1.50423 9.56006 1.28773C9.85006 1.01063 10.21 0.824828 10.6 0.753628C10.73 0.730528 10.85 0.719027 10.97 0.719227C11.17 0.719227 11.3701 0.748126 11.5601 0.805126C11.7701 0.868126 11.96 0.962526 12.14 1.08503C12.53 1.35083 12.81 1.74013 12.95 2.18883C13.08 2.63743 13.06 3.11863 12.88 3.55303C12.77 3.83943 12.59 4.09643 12.36 4.30523C12.08 4.56483 11.72 4.73913 11.34 4.80843ZM17.5 18.9241C16.56 18.9241 15.65 18.5718 14.95 17.9363C14.26 17.3008 13.82 16.4279 13.74 15.4892H21.27C21.18 16.4279 20.75 17.3008 20.05 17.9363C19.36 18.5718 18.45 18.9241 17.5 18.9241Z" fill="#40474E"/>
</svg>
