<svg width="20" height="21" viewBox="0 0 20 21" fill="none" xmlns="http://www.w3.org/2000/svg">
<path fill-rule="evenodd" clip-rule="evenodd" d="M9.99839 0.600098C7.23696 0.600098 4.99841 2.83868 4.99841 5.6001C4.99841 8.36152 7.23696 10.6001 9.99839 10.6001C12.7598 10.6001 14.9984 8.36152 14.9984 5.6001C14.9984 2.83868 12.7598 0.600098 9.99839 0.600098ZM5.79841 5.6001C5.79841 3.2805 7.6788 1.4001 9.99839 1.4001C12.318 1.4001 14.1984 3.2805 14.1984 5.6001C14.1984 7.91969 12.318 9.80009 9.99839 9.80009C7.6788 9.80009 5.79841 7.91969 5.79841 5.6001Z" fill="#40474E"/>
<path d="M1.39998 17.7366C1.39998 15.8232 2.32135 14.4099 3.84809 13.4565C5.39219 12.4923 7.56034 12.0002 9.99998 12.0002C12.4396 12.0002 14.6078 12.4923 16.1519 13.4565C17.6786 14.4099 18.6 15.8232 18.6 17.7366V20.6002H19.4V17.7366C19.4 15.5136 18.3063 13.8587 16.5756 12.778C14.8622 11.7081 12.5303 11.2002 9.99998 11.2002C7.46961 11.2002 5.13776 11.7081 3.42436 12.778C1.69361 13.8587 0.599976 15.5136 0.599976 17.7366V20.6002H1.39998V17.7366Z" fill="#40474E"/>
</svg>
