<svg width="323" height="72" fill="none" xmlns="http://www.w3.org/2000/svg"><path d="M86.49 43.65c-2.494 0-4.558-.801-6.193-2.403-1.619-1.619-2.428-3.666-2.428-6.144 0-2.477.81-4.517 2.428-6.119 1.635-1.618 3.7-2.427 6.193-2.427 2.51 0 4.575.8 6.193 2.403 1.635 1.602 2.453 3.65 2.453 6.143 0 2.494-.818 4.542-2.453 6.144C91.065 42.849 89 43.65 86.49 43.65zm-3.642-4.657c.925 1.023 2.14 1.535 3.642 1.535 1.503 0 2.717-.512 3.642-1.535.924-1.024 1.387-2.32 1.387-3.89 0-1.569-.463-2.865-1.388-3.89-.924-1.023-2.138-1.535-3.641-1.535-1.503 0-2.717.512-3.642 1.536-.908 1.024-1.362 2.32-1.362 3.89 0 1.568.454 2.865 1.362 3.889zm17.828 4.359H97.53V31.387h3.146v4.435h4.954v-4.435h3.147v11.965h-3.147v-4.78h-4.954v4.78zm10.109.298v-2.577c.495 0 .892-.289 1.189-.867.297-.594.537-1.602.719-3.022l.767-5.797h9.687v11.965H120v-9.215h-3.79l-.396 3.419c-.248 2.097-.776 3.641-1.586 4.632-.792.974-1.94 1.462-3.443 1.462zm25.815-.298h-3.146v-1.238c-.859 1.024-2.122 1.536-3.79 1.536-1.074 0-2.04-.347-2.899-1.04-.842-.71-1.263-1.685-1.263-2.924 0-1.288.413-2.254 1.238-2.898.843-.644 1.817-.966 2.924-.966 1.701 0 2.964.487 3.79 1.461v-1.61c0-.611-.24-1.098-.719-1.462-.479-.363-1.114-.545-1.907-.545-1.305 0-2.469.471-3.493 1.412l-1.189-2.105c1.42-1.255 3.163-1.883 5.227-1.883 1.536 0 2.791.355 3.765 1.065.975.71 1.462 1.867 1.462 3.468v7.73zm-5.673-1.833c1.173 0 2.015-.346 2.527-1.04v-1.486c-.512-.694-1.354-1.04-2.527-1.04-.644 0-1.181.164-1.61.494-.43.314-.644.752-.644 1.313 0 .545.214.975.644 1.289.429.313.966.47 1.61.47zm11.816 1.833h-3.023V31.387h3.147v7.234l4.929-7.234h3.171v11.965h-3.146v-7.506l-5.078 7.507zm6.936-15.334c-1.073 1.454-2.518 2.18-4.335 2.18-1.8 0-3.254-.726-4.36-2.18l1.387-1.164c.727 1.024 1.718 1.536 2.973 1.536 1.222 0 2.205-.512 2.948-1.536l1.387 1.164zm7.558 15.334h-3.147V31.387h3.147v4.435h4.954v-4.435h3.146v11.965h-3.146v-4.78h-4.954v4.78z" fill="#001237"/><path d="M181.495 43.65c-2.51 0-4.607-.793-6.292-2.378-1.668-1.602-2.502-3.658-2.502-6.169 0-2.51.834-4.558 2.502-6.143 1.685-1.602 3.782-2.403 6.292-2.403 3.089 0 5.393 1.346 6.912 4.038l-3.022 1.486c-.364-.694-.9-1.263-1.611-1.71a4.022 4.022 0 00-2.279-.693c-1.502 0-2.741.512-3.715 1.536-.975 1.024-1.462 2.32-1.462 3.89 0 1.568.487 2.865 1.462 3.889.974 1.023 2.213 1.535 3.715 1.535.826 0 1.586-.223 2.279-.669a4.383 4.383 0 001.611-1.733l3.022 1.461c-1.569 2.708-3.873 4.063-6.912 4.063z" fill="url(#paint0_linear_58_4722)"/><path d="M195.802 43.352h-3.171v-9.215h-3.344v-2.75h9.859v2.75h-3.344v9.215z" fill="url(#paint1_linear_58_4722)"/><path d="M207.957 43.65c-1.503 0-2.734-.611-3.692-1.833v6.094h-3.146V31.387h3.146v1.511c.942-1.205 2.172-1.808 3.692-1.808 1.568 0 2.84.562 3.814 1.685.991 1.106 1.487 2.634 1.487 4.583 0 1.948-.496 3.484-1.487 4.607-.974 1.123-2.246 1.685-3.814 1.685zm-.991-2.8c.908 0 1.635-.322 2.18-.966.561-.644.842-1.486.842-2.526 0-1.024-.281-1.858-.842-2.502-.545-.645-1.272-.967-2.18-.967-.512 0-1.024.133-1.536.397s-.9.586-1.165.966v4.236c.265.38.653.702 1.165.966.528.264 1.04.396 1.536.396z" fill="url(#paint2_linear_58_4722)"/><path d="M225.892 43.352h-3.146v-1.238c-.859 1.024-2.122 1.536-3.79 1.536-1.074 0-2.04-.347-2.899-1.04-.842-.71-1.263-1.685-1.263-2.924 0-1.288.413-2.254 1.239-2.898.842-.644 1.816-.966 2.923-.966 1.701 0 2.964.487 3.79 1.461v-1.61c0-.611-.24-1.098-.718-1.462-.479-.363-1.115-.545-1.908-.545-1.305 0-2.469.471-3.493 1.412l-1.189-2.105c1.42-1.255 3.163-1.883 5.227-1.883 1.536 0 2.791.355 3.765 1.065.975.71 1.462 1.867 1.462 3.468v7.73zm-5.673-1.833c1.173 0 2.015-.346 2.527-1.04v-1.486c-.512-.694-1.354-1.04-2.527-1.04-.644 0-1.181.164-1.61.494-.429.314-.644.752-.644 1.313 0 .545.215.975.644 1.289.429.313.966.47 1.61.47z" fill="url(#paint3_linear_58_4722)"/><path d="M239.937 43.352h-3.517l-2.725-4.037-2.75 4.038h-3.493l4.236-6.144-3.988-5.822h3.517l2.478 3.691 2.452-3.69h3.518l-4.013 5.82 4.285 6.145z" fill="url(#paint4_linear_58_4722)"/><path d="M250.806 41.841c-1.156 1.206-2.692 1.809-4.608 1.809-1.916 0-3.452-.603-4.608-1.809-1.139-1.222-1.709-2.716-1.709-4.483 0-1.768.57-3.254 1.709-4.46 1.156-1.205 2.692-1.808 4.608-1.808 1.916 0 3.452.603 4.608 1.808 1.156 1.206 1.734 2.692 1.734 4.46 0 1.767-.578 3.261-1.734 4.483zm-6.838-1.982c.545.661 1.289.991 2.23.991.941 0 1.684-.33 2.229-.99.562-.678.843-1.512.843-2.502 0-.975-.281-1.792-.843-2.453-.545-.677-1.288-1.016-2.229-1.016-.941 0-1.685.339-2.23 1.016-.545.66-.817 1.478-.817 2.453 0 .99.272 1.824.817 2.502z" fill="url(#paint5_linear_58_4722)"/><path d="M262.677 43.352h-7.803V31.387h7.58c1.156 0 2.056.298 2.7.892.644.595.966 1.321.966 2.18 0 .694-.189 1.28-.569 1.759-.38.479-.867.801-1.462.966a2.814 2.814 0 011.635 1.04c.429.546.644 1.173.644 1.883 0 .942-.33 1.718-.991 2.329-.644.61-1.544.916-2.7.916zm-.768-2.576c.38 0 .677-.099.892-.297.231-.198.347-.47.347-.818a1.04 1.04 0 00-.347-.792c-.215-.215-.512-.322-.892-.322h-3.889v2.23h3.889zm-.099-4.806c.33 0 .595-.09.793-.272a.945.945 0 00.322-.719c0-.297-.099-.536-.297-.718-.199-.198-.471-.297-.818-.297h-3.79v2.006h3.79z" fill="url(#paint6_linear_58_4722)"/><path d="M279.719 43.352h-3.146v-1.238c-.859 1.024-2.122 1.536-3.79 1.536-1.074 0-2.04-.347-2.899-1.04-.842-.71-1.263-1.685-1.263-2.924 0-1.288.413-2.254 1.239-2.898.842-.644 1.816-.966 2.923-.966 1.701 0 2.964.487 3.79 1.461v-1.61c0-.611-.24-1.098-.718-1.462-.479-.363-1.115-.545-1.908-.545-1.305 0-2.469.471-3.493 1.412l-1.189-2.105c1.42-1.255 3.163-1.883 5.227-1.883 1.536 0 2.791.355 3.765 1.065.975.71 1.462 1.867 1.462 3.468v7.73zm-5.673-1.833c1.173 0 2.015-.346 2.527-1.04v-1.486c-.512-.694-1.354-1.04-2.527-1.04-.644 0-1.181.164-1.61.494-.429.314-.644.752-.644 1.313 0 .545.215.975.644 1.289.429.313.966.47 1.61.47z" fill="url(#paint7_linear_58_4722)"/><path d="M285.986 43.352h-3.146V31.387h3.146v4.435h4.954v-4.435h3.146v11.965h-3.146v-4.78h-4.954v4.78z" fill="url(#paint8_linear_58_4722)"/><path d="M300.232 43.352h-3.022V31.387h3.146v7.234l4.929-7.234h3.171v11.965h-3.146v-7.506l-5.078 7.507z" fill="url(#paint9_linear_58_4722)"/><path d="M317.203 43.65c-1.85 0-3.377-.578-4.583-1.734-1.206-1.156-1.808-2.676-1.808-4.558 0-1.768.578-3.254 1.734-4.46 1.172-1.205 2.659-1.808 4.459-1.808 1.783 0 3.228.611 4.335 1.833 1.106 1.206 1.66 2.791 1.66 4.757v.693h-8.894a3.038 3.038 0 001.066 1.982c.611.529 1.403.793 2.378.793.528 0 1.098-.108 1.709-.322.628-.215 1.123-.504 1.486-.867l1.388 2.031c-1.206 1.106-2.849 1.66-4.93 1.66zm2.75-7.407c-.05-.677-.322-1.288-.818-1.833-.479-.545-1.189-.818-2.13-.818-.892 0-1.586.273-2.081.818a3.164 3.164 0 00-.867 1.833h5.896z" fill="url(#paint10_linear_58_4722)"/><path fill-rule="evenodd" clip-rule="evenodd" d="M29.535.12c-2.058 1.138-7.148 3.646-12.784 5.507C11.508 7.358 4.71 8.521 1.088 9.01A1.247 1.247 0 000 10.272c.126 5.217.443 14.73.903 18.544.62 5.132 3.529 15.582 8.11 22.879 4.495 7.161 11.019 14.68 20.446 19.399.339.17.74.17 1.078 0 9.428-4.72 15.95-12.238 20.446-19.399 4.581-7.297 7.49-17.747 8.11-22.88.46-3.813.777-13.326.903-18.543a1.247 1.247 0 00-1.088-1.262c-3.623-.489-10.42-1.652-15.663-3.383C37.61 3.767 32.52 1.257 30.461.12a.954.954 0 00-.926 0zm4.235 46.436l-2.124-18.072 15.65 9.311-6.365 1.793 4.742 7.305-2.925 1.895-4.742-7.306-4.236 5.074z" fill="url(#paint11_linear_58_4722)"/><defs><linearGradient id="paint0_linear_58_4722" x1="247.918" y1="23.225" x2="247.918" y2="47.997" gradientUnits="userSpaceOnUse"><stop stop-color="#09A9E5"/><stop offset="1" stop-color="#2155CF"/></linearGradient><linearGradient id="paint1_linear_58_4722" x1="247.918" y1="23.225" x2="247.918" y2="47.997" gradientUnits="userSpaceOnUse"><stop stop-color="#09A9E5"/><stop offset="1" stop-color="#2155CF"/></linearGradient><linearGradient id="paint2_linear_58_4722" x1="247.918" y1="23.225" x2="247.918" y2="47.997" gradientUnits="userSpaceOnUse"><stop stop-color="#09A9E5"/><stop offset="1" stop-color="#2155CF"/></linearGradient><linearGradient id="paint3_linear_58_4722" x1="247.918" y1="23.225" x2="247.918" y2="47.997" gradientUnits="userSpaceOnUse"><stop stop-color="#09A9E5"/><stop offset="1" stop-color="#2155CF"/></linearGradient><linearGradient id="paint4_linear_58_4722" x1="247.918" y1="23.225" x2="247.918" y2="47.997" gradientUnits="userSpaceOnUse"><stop stop-color="#09A9E5"/><stop offset="1" stop-color="#2155CF"/></linearGradient><linearGradient id="paint5_linear_58_4722" x1="247.918" y1="23.225" x2="247.918" y2="47.997" gradientUnits="userSpaceOnUse"><stop stop-color="#09A9E5"/><stop offset="1" stop-color="#2155CF"/></linearGradient><linearGradient id="paint6_linear_58_4722" x1="247.918" y1="23.225" x2="247.918" y2="47.997" gradientUnits="userSpaceOnUse"><stop stop-color="#09A9E5"/><stop offset="1" stop-color="#2155CF"/></linearGradient><linearGradient id="paint7_linear_58_4722" x1="247.918" y1="23.225" x2="247.918" y2="47.997" gradientUnits="userSpaceOnUse"><stop stop-color="#09A9E5"/><stop offset="1" stop-color="#2155CF"/></linearGradient><linearGradient id="paint8_linear_58_4722" x1="247.918" y1="23.225" x2="247.918" y2="47.997" gradientUnits="userSpaceOnUse"><stop stop-color="#09A9E5"/><stop offset="1" stop-color="#2155CF"/></linearGradient><linearGradient id="paint9_linear_58_4722" x1="247.918" y1="23.225" x2="247.918" y2="47.997" gradientUnits="userSpaceOnUse"><stop stop-color="#09A9E5"/><stop offset="1" stop-color="#2155CF"/></linearGradient><linearGradient id="paint10_linear_58_4722" x1="247.918" y1="23.225" x2="247.918" y2="47.997" gradientUnits="userSpaceOnUse"><stop stop-color="#09A9E5"/><stop offset="1" stop-color="#2155CF"/></linearGradient><linearGradient id="paint11_linear_58_4722" x1="29.998" y1="0" x2="29.998" y2="71.221" gradientUnits="userSpaceOnUse"><stop stop-color="#09A9E5"/><stop offset="1" stop-color="#2155CF"/></linearGradient></defs></svg>