<svg width="171" height="54" fill="none" xmlns="http://www.w3.org/2000/svg"><path d="M64.601 22.483c-1.862 0-3.404-.598-4.626-1.794-1.209-1.21-1.813-2.739-1.813-4.59 0-1.85.605-3.373 1.813-4.57 1.222-1.208 2.764-1.813 4.626-1.813 1.875 0 3.417.599 4.626 1.795 1.221 1.197 1.832 2.726 1.832 4.589 0 1.862-.61 3.392-1.832 4.589-1.209 1.196-2.75 1.794-4.626 1.794zm-2.72-3.478c.691.765 1.598 1.147 2.72 1.147 1.123 0 2.03-.382 2.72-1.147.69-.765 1.036-1.733 1.036-2.905 0-1.172-.345-2.14-1.036-2.905-.69-.765-1.597-1.147-2.72-1.147-1.122 0-2.029.382-2.72 1.147-.678.765-1.017 1.733-1.017 2.905 0 1.172.339 2.14 1.017 2.905zm13.316 3.256h-2.35v-8.937h2.35v3.312h3.7v-3.312h2.35v8.937h-2.35v-3.57h-3.7v3.57zm7.551.222V20.56c.37 0 .666-.216.888-.648.222-.444.4-1.196.536-2.257l.574-4.33h7.234v8.937h-2.35v-6.883H86.8l-.296 2.554c-.186 1.566-.58 2.72-1.185 3.46-.592.727-1.449 1.091-2.572 1.091zm19.281-.222h-2.35v-.925c-.641.765-1.585 1.147-2.83 1.147a3.356 3.356 0 01-2.166-.777c-.629-.53-.943-1.258-.943-2.183 0-.962.308-1.684.925-2.165.629-.481 1.357-.722 2.183-.722 1.27 0 2.214.364 2.831 1.092v-1.203a1.3 1.3 0 00-.537-1.091c-.357-.272-.832-.407-1.424-.407-.975 0-1.844.351-2.61 1.054l-.887-1.572c1.06-.938 2.362-1.407 3.904-1.407 1.147 0 2.085.266 2.812.796.728.53 1.092 1.394 1.092 2.59v5.773zm-4.237-1.369c.876 0 1.505-.259 1.887-.777v-1.11c-.382-.518-1.011-.777-1.887-.777-.481 0-.882.123-1.203.37-.32.234-.481.561-.481.98 0 .407.16.728.481.963.32.234.722.351 1.203.351zm8.825 1.369h-2.257v-8.937h2.35v5.403l3.682-5.403h2.368v8.937h-2.35v-5.606l-3.793 5.606zm5.181-11.453c-.802 1.085-1.881 1.628-3.238 1.628-1.345 0-2.43-.543-3.257-1.628l1.037-.87c.542.765 1.282 1.147 2.22 1.147.913 0 1.647-.382 2.202-1.147l1.036.87zm5.645 11.453h-2.35v-8.937h2.35v3.312h3.7v-3.312h2.35v8.937h-2.35v-3.57h-3.7v3.57z" fill="#001237"/><path d="M65.309 40.408c-1.875 0-3.442-.592-4.7-1.776-1.246-1.197-1.869-2.732-1.869-4.607s.623-3.405 1.869-4.59c1.258-1.196 2.825-1.794 4.7-1.794 2.306 0 4.027 1.005 5.162 3.016l-2.257 1.11a3.308 3.308 0 00-1.203-1.276 3.006 3.006 0 00-1.702-.518c-1.123 0-2.048.382-2.776 1.147-.727.764-1.091 1.733-1.091 2.905 0 1.172.364 2.14 1.091 2.905.728.764 1.653 1.147 2.776 1.147.617 0 1.184-.167 1.702-.5.53-.333.931-.765 1.203-1.295l2.257 1.092c-1.172 2.023-2.892 3.034-5.162 3.034z" fill="url(#paint0_linear_86_439)"/><path d="M75.995 40.186h-2.369v-6.883h-2.498v-2.054h7.365v2.054h-2.498v6.883z" fill="url(#paint1_linear_86_439)"/><path d="M85.073 40.408c-1.122 0-2.041-.456-2.757-1.37v4.553h-2.35V31.249h2.35v1.129c.703-.9 1.622-1.35 2.757-1.35 1.172 0 2.122.419 2.85 1.257.74.827 1.11 1.968 1.11 3.423 0 1.456-.37 2.603-1.11 3.442-.728.839-1.678 1.258-2.85 1.258zm-.74-2.09c.678 0 1.221-.241 1.628-.722.42-.481.63-1.11.63-1.888 0-.764-.21-1.387-.63-1.868-.407-.482-.95-.722-1.628-.722-.382 0-.765.099-1.147.296-.383.197-.673.438-.87.722V37.3c.197.283.487.524.87.721.394.198.777.296 1.147.296z" fill="url(#paint2_linear_86_439)"/><path d="M98.47 40.186h-2.35v-.925c-.642.765-1.586 1.147-2.832 1.147a3.356 3.356 0 01-2.164-.777c-.63-.53-.944-1.258-.944-2.183 0-.962.308-1.684.925-2.165.63-.481 1.357-.722 2.183-.722 1.271 0 2.215.364 2.831 1.092V34.45a1.3 1.3 0 00-.536-1.092c-.358-.27-.833-.406-1.425-.406-.974 0-1.844.351-2.609 1.054l-.888-1.573c1.06-.937 2.362-1.406 3.904-1.406 1.147 0 2.085.265 2.813.796.727.53 1.091 1.394 1.091 2.59v5.773zm-4.238-1.37c.876 0 1.505-.258 1.887-.776v-1.11c-.382-.519-1.011-.777-1.887-.777-.481 0-.882.123-1.203.37-.32.234-.48.56-.48.98 0 .407.16.728.48.962.321.235.722.352 1.203.352z" fill="url(#paint3_linear_86_439)"/><path d="M108.96 40.186h-2.628l-2.035-3.016-2.054 3.016h-2.609l3.164-4.589-2.979-4.348h2.628l1.85 2.757 1.832-2.757h2.627l-2.997 4.348 3.201 4.59z" fill="url(#paint4_linear_86_439)"/><path d="M117.078 39.057c-.864.9-2.011 1.351-3.442 1.351s-2.578-.45-3.442-1.35c-.851-.913-1.276-2.03-1.276-3.35 0-1.32.425-2.43 1.276-3.33.864-.9 2.011-1.35 3.442-1.35s2.578.45 3.442 1.35c.863.9 1.295 2.01 1.295 3.33 0 1.32-.432 2.437-1.295 3.35zm-5.107-1.48c.407.494.962.74 1.665.74.703 0 1.258-.246 1.665-.74.42-.506.629-1.128.629-1.869 0-.727-.209-1.338-.629-1.831-.407-.506-.962-.759-1.665-.759-.703 0-1.258.253-1.665.759-.407.493-.611 1.104-.611 1.831 0 .74.204 1.363.611 1.87z" fill="url(#paint5_linear_86_439)"/><path d="M125.945 40.186h-5.829V31.25h5.662c.863 0 1.536.222 2.017.666.481.444.721.987.721 1.629 0 .518-.141.956-.425 1.313a2.066 2.066 0 01-1.092.722c.494.11.901.37 1.221.777.321.407.481.876.481 1.406 0 .703-.246 1.283-.74 1.74-.481.456-1.153.684-2.016.684zm-.574-1.924c.284 0 .506-.074.666-.222.173-.148.259-.352.259-.61a.775.775 0 00-.259-.593c-.16-.16-.382-.24-.666-.24h-2.905v1.665h2.905zm-.074-3.59c.247 0 .444-.068.592-.203a.706.706 0 00.241-.537c0-.222-.074-.4-.222-.537-.148-.148-.352-.222-.611-.222h-2.831v1.5h2.831z" fill="url(#paint6_linear_86_439)"/><path d="M138.673 40.186h-2.349v-.925c-.642.765-1.586 1.147-2.831 1.147a3.355 3.355 0 01-2.165-.777c-.629-.53-.944-1.258-.944-2.183 0-.962.308-1.684.925-2.165.629-.481 1.357-.722 2.184-.722 1.27 0 2.214.364 2.831 1.092V34.45a1.3 1.3 0 00-.537-1.092c-.358-.27-.833-.406-1.425-.406-.974 0-1.844.351-2.609 1.054l-.888-1.573c1.061-.937 2.362-1.406 3.904-1.406 1.147 0 2.085.265 2.813.796.728.53 1.091 1.394 1.091 2.59v5.773zm-4.237-1.37c.876 0 1.505-.258 1.888-.776v-1.11c-.383-.519-1.012-.777-1.888-.777-.481 0-.882.123-1.202.37-.321.234-.482.56-.482.98 0 .407.161.728.482.962.32.235.721.352 1.202.352z" fill="url(#paint7_linear_86_439)"/><path d="M143.354 40.186h-2.35V31.25h2.35v3.312h3.701V31.25h2.35v8.937h-2.35v-3.571h-3.701v3.571z" fill="url(#paint8_linear_86_439)"/><path d="M153.995 40.186h-2.258V31.25h2.35v5.403l3.682-5.403h2.369v8.937h-2.35V34.58l-3.793 5.606z" fill="url(#paint9_linear_86_439)"/><path d="M166.671 40.408c-1.382 0-2.523-.432-3.423-1.295-.901-.864-1.351-1.998-1.351-3.405 0-1.32.432-2.43 1.295-3.33.876-.9 1.986-1.35 3.331-1.35 1.332 0 2.411.456 3.238 1.368.826.9 1.239 2.085 1.239 3.553v.518h-6.642a2.27 2.27 0 00.795 1.48c.457.395 1.049.592 1.777.592.394 0 .82-.08 1.276-.24.469-.16.839-.376 1.111-.648l1.036 1.517c-.901.827-2.128 1.24-3.682 1.24zm2.054-5.532c-.037-.506-.241-.962-.611-1.37-.358-.407-.888-.61-1.591-.61-.666 0-1.185.203-1.555.61-.37.395-.586.852-.647 1.37h4.404z" fill="url(#paint10_linear_86_439)"/><path fill-rule="evenodd" clip-rule="evenodd" d="M22.06.09c-1.537.85-5.34 2.723-9.549 4.113C8.595 5.496 3.518 6.365.813 6.73A.931.931 0 000 7.672c.094 3.897.331 11.003.675 13.85.462 3.834 2.635 11.64 6.057 17.09 3.358 5.349 8.23 10.964 15.272 14.49a.9.9 0 00.804 0c7.042-3.526 11.914-9.141 15.272-14.49 3.422-5.45 5.595-13.256 6.057-17.09.344-2.847.58-9.953.675-13.85a.932.932 0 00-.813-.942c-2.706-.365-7.783-1.234-11.699-2.527C28.091 2.813 24.29.939 22.752.09a.713.713 0 00-.692 0zm3.163 34.683l-1.586-13.498 11.69 6.955-4.755 1.339 3.542 5.456-2.185 1.416-3.542-5.457-3.164 3.79z" fill="url(#paint11_linear_86_439)"/><defs><linearGradient id="paint0_linear_86_439" x1="114.921" y1="25.152" x2="114.921" y2="43.655" gradientUnits="userSpaceOnUse"><stop stop-color="#09A9E5"/><stop offset="1" stop-color="#2155CF"/></linearGradient><linearGradient id="paint1_linear_86_439" x1="114.921" y1="25.152" x2="114.921" y2="43.655" gradientUnits="userSpaceOnUse"><stop stop-color="#09A9E5"/><stop offset="1" stop-color="#2155CF"/></linearGradient><linearGradient id="paint2_linear_86_439" x1="114.921" y1="25.152" x2="114.921" y2="43.655" gradientUnits="userSpaceOnUse"><stop stop-color="#09A9E5"/><stop offset="1" stop-color="#2155CF"/></linearGradient><linearGradient id="paint3_linear_86_439" x1="114.921" y1="25.152" x2="114.921" y2="43.655" gradientUnits="userSpaceOnUse"><stop stop-color="#09A9E5"/><stop offset="1" stop-color="#2155CF"/></linearGradient><linearGradient id="paint4_linear_86_439" x1="114.921" y1="25.152" x2="114.921" y2="43.655" gradientUnits="userSpaceOnUse"><stop stop-color="#09A9E5"/><stop offset="1" stop-color="#2155CF"/></linearGradient><linearGradient id="paint5_linear_86_439" x1="114.921" y1="25.152" x2="114.921" y2="43.655" gradientUnits="userSpaceOnUse"><stop stop-color="#09A9E5"/><stop offset="1" stop-color="#2155CF"/></linearGradient><linearGradient id="paint6_linear_86_439" x1="114.921" y1="25.152" x2="114.921" y2="43.655" gradientUnits="userSpaceOnUse"><stop stop-color="#09A9E5"/><stop offset="1" stop-color="#2155CF"/></linearGradient><linearGradient id="paint7_linear_86_439" x1="114.921" y1="25.152" x2="114.921" y2="43.655" gradientUnits="userSpaceOnUse"><stop stop-color="#09A9E5"/><stop offset="1" stop-color="#2155CF"/></linearGradient><linearGradient id="paint8_linear_86_439" x1="114.921" y1="25.152" x2="114.921" y2="43.655" gradientUnits="userSpaceOnUse"><stop stop-color="#09A9E5"/><stop offset="1" stop-color="#2155CF"/></linearGradient><linearGradient id="paint9_linear_86_439" x1="114.921" y1="25.152" x2="114.921" y2="43.655" gradientUnits="userSpaceOnUse"><stop stop-color="#09A9E5"/><stop offset="1" stop-color="#2155CF"/></linearGradient><linearGradient id="paint10_linear_86_439" x1="114.921" y1="25.152" x2="114.921" y2="43.655" gradientUnits="userSpaceOnUse"><stop stop-color="#09A9E5"/><stop offset="1" stop-color="#2155CF"/></linearGradient><linearGradient id="paint11_linear_86_439" x1="22.406" y1="0" x2="22.406" y2="53.196" gradientUnits="userSpaceOnUse"><stop stop-color="#09A9E5"/><stop offset="1" stop-color="#2155CF"/></linearGradient></defs></svg>