<svg width="72" height="27" viewBox="0 0 72 27" fill="none" xmlns="http://www.w3.org/2000/svg">
<path d="M9.88648 12.6894C9.47321 13.0482 9.26655 13.5002 9.26655 14.0468C9.26655 14.5931 9.47321 15.0454 9.88648 15.4035C10.2998 15.7625 10.7737 15.9416 11.3087 15.9416C11.8324 15.9416 12.2924 15.7682 12.688 15.4207C13.0827 15.0742 13.2813 14.6161 13.2813 14.0468C13.2813 13.4782 13.0827 13.02 12.688 12.6722C12.2924 12.3247 11.8324 12.1512 11.3087 12.1512C10.7737 12.1512 10.2998 12.3307 9.88648 12.6894Z" fill="#A0ABC1"/>
<path d="M37.2574 15.8557C37.7808 15.8557 38.2196 15.6887 38.5753 15.3528C38.9303 15.0176 39.1076 14.5759 39.1076 14.0297C39.1076 13.5055 38.9268 13.0733 38.5668 12.7314C38.206 12.3907 37.7692 12.2188 37.2574 12.2188C36.7453 12.2188 36.3119 12.3907 35.9573 12.7314C35.602 13.0733 35.4247 13.5055 35.4247 14.0297C35.4247 14.5759 35.602 15.0176 35.9573 15.3528C36.3123 15.6887 36.7453 15.8557 37.2574 15.8557Z" fill="#A0ABC1"/>
<path d="M52.3031 13.3461H55.8296C55.7713 12.9019 55.5696 12.563 55.2267 12.3306C54.8837 12.0974 54.5136 11.9795 54.1185 11.9795C53.7226 11.9795 53.3448 12.0944 52.9841 12.3215C52.6233 12.5497 52.3962 12.8908 52.3031 13.3461Z" fill="#A0ABC1"/>
<path fill-rule="evenodd" clip-rule="evenodd" d="M72 0H0V27H72V0ZM13.2816 18.0416V17.1367C13.0487 17.4782 12.6907 17.7404 12.2075 17.9221C11.7247 18.1047 11.2921 18.1953 10.9081 18.1953C9.81387 18.1953 8.84786 17.8121 8.0101 17.043C7.17192 16.2741 6.75323 15.2751 6.75323 14.0468C6.75323 12.8178 7.17192 11.8188 8.0101 11.0502C8.84786 10.2808 9.81387 9.89831 10.9081 9.89831C11.2921 9.89831 11.7135 9.97764 12.1735 10.137C12.6323 10.2962 13.0016 10.5689 13.2816 10.9561V10.0684H15.6903V18.0416H13.2816ZM19.3794 18.0418V15.2579C19.3794 13.141 20.0546 12.0824 21.4045 12.0824C21.8928 12.0824 22.3057 12.1621 22.6432 12.3215L23.0805 10.1872C22.6842 9.99406 22.2188 9.89776 21.683 9.89776C21.218 9.89776 20.7664 10.0738 20.3308 10.4259C19.8943 10.78 19.5768 11.303 19.3794 11.9981V10.0679H16.9538V18.0418H19.3794ZM26.3474 10.0679H28.2087V12.1256H26.3474V18.0414H23.9387V7.01169H26.3474V10.0679ZM27.4123 19.9033V22.054H28.8963C30.0006 22.054 30.7923 21.7559 31.2698 21.1581C31.7468 20.5604 31.9855 19.7038 31.9855 18.589V10.0679H29.5421V18.6392C29.5648 19.4821 29.2099 19.9033 28.4776 19.9033H27.4123ZM29.2458 7.11445C29.2458 7.50131 29.393 7.8308 29.6904 8.10384C29.987 8.37817 30.3447 8.51468 30.7634 8.51431C31.1825 8.51431 31.5375 8.37817 31.8287 8.10384C32.1191 7.8308 32.2651 7.50131 32.2651 7.11445C32.2651 6.72795 32.1191 6.40031 31.8287 6.1317C31.5375 5.86567 31.1825 5.73119 30.7634 5.73119C30.3447 5.73119 29.987 5.86567 29.6904 6.1317C29.393 6.40031 29.2458 6.72795 29.2458 7.11445ZM40.2687 17.0259C39.4479 17.7935 38.444 18.1782 37.2574 18.1782C36.0705 18.1782 35.0697 17.7935 34.2555 17.0259C33.4405 16.2569 33.033 15.2579 33.033 14.0297C33.033 12.7995 33.4405 11.8031 34.2555 11.0403C35.0697 10.2793 36.0705 9.89776 37.2574 9.89776C38.444 9.89776 39.4479 10.2793 40.2687 11.0403C41.0883 11.8031 41.4989 12.7995 41.4989 14.0297C41.4989 15.2579 41.0883 16.2569 40.2687 17.0259ZM44.9555 18.0414V14.8829L47.6777 18.0414H50.6627L46.5958 13.585L49.9818 10.0679H46.8925L44.9555 12.2544V5.73082H42.5472V18.0414H44.9555ZM56.0563 15.4125L57.8184 16.5908C57.0737 17.6723 55.8342 18.2114 54.1007 18.2114C52.9022 18.2114 51.8937 17.8223 51.0729 17.0425C50.2521 16.263 49.8419 15.2579 49.8419 14.0297C49.8419 12.7995 50.2521 11.8031 51.0729 11.0403C51.8937 10.2789 52.9026 9.89776 54.1007 9.89776C55.2877 9.89776 56.28 10.2868 57.0772 11.0663C57.8744 11.8463 58.2726 12.8576 58.2726 14.0968C58.2726 14.3141 58.2611 14.5578 58.2375 14.8325H52.2687C52.3263 15.2644 52.5561 15.5954 52.9574 15.8221C53.3591 16.0499 53.7987 16.1636 54.2757 16.1636C55.0671 16.1636 55.6597 15.9138 56.0563 15.4125ZM61.4217 18.0245V15.2406C61.4217 13.1233 62.0969 12.0651 63.4464 12.0651C63.9347 12.0651 64.348 12.1448 64.6852 12.3042L65.1224 10.1699C64.7261 9.97672 64.2603 9.88042 63.7253 9.88042C63.2599 9.88042 62.8088 10.0564 62.3727 10.4086C61.9366 10.7626 61.6191 11.2856 61.4217 11.9808V10.0509H58.9961V18.0245H61.4217Z" fill="#A0ABC1"/>
</svg>
