<svg width="436" height="437" viewBox="0 0 436 437" fill="none" xmlns="http://www.w3.org/2000/svg">
<g opacity="0.1">
<path d="M435.135 201.726C435.221 202.855 435.299 203.984 435.368 205.114L261.344 431.734C260.234 431.959 259.123 432.175 258.01 432.383L435.135 201.726Z" fill="#E7EAFF"/>
<path d="M433.419 186.425C433.572 187.465 433.718 188.505 433.857 189.546L245.911 434.295C244.869 434.43 243.827 434.557 242.783 434.677L433.419 186.425Z" fill="#E7EAFF"/>
<path d="M430.842 172.245C431.051 173.212 431.253 174.179 431.448 175.148L231.377 435.687C230.391 435.748 229.403 435.803 228.416 435.851L430.842 172.245Z" fill="#E7EAFF"/>
<path d="M427.547 159.001C427.802 159.905 428.052 160.811 428.295 161.718L217.586 436.109C216.647 436.109 215.707 436.102 214.767 436.089L427.547 159.001Z" fill="#E7EAFF"/>
<path d="M423.633 146.562C423.929 147.413 424.219 148.265 424.504 149.119L204.433 435.702C203.535 435.647 202.636 435.586 201.738 435.52L423.633 146.562Z" fill="#E7EAFF"/>
<path d="M419.171 134.837C419.504 135.64 419.831 136.444 420.153 137.25L191.841 434.565C190.979 434.461 190.117 434.353 189.256 434.24L419.171 134.837Z" fill="#E7EAFF"/>
<path d="M414.217 123.753C414.583 124.512 414.943 125.273 415.299 126.036L179.752 432.772C178.923 432.626 178.095 432.474 177.267 432.317L414.217 123.753Z" fill="#E7EAFF"/>
<path d="M408.812 113.256C409.208 113.975 409.599 114.696 409.986 115.419L168.121 430.383C167.323 430.196 166.525 430.004 165.728 429.808L408.812 113.256Z" fill="#E7EAFF"/>
<path d="M402.989 103.303C403.413 103.985 403.833 104.669 404.249 105.355L156.915 427.44C156.145 427.216 155.376 426.987 154.608 426.754L402.989 103.303Z" fill="#E7EAFF"/>
<path d="M396.774 93.8618C397.224 94.5086 397.671 95.1575 398.114 95.8084L146.107 423.98C145.363 423.72 144.621 423.457 143.88 423.189L396.774 93.8618Z" fill="#E7EAFF"/>
<path d="M390.187 84.9045C390.663 85.5179 391.135 86.1335 391.604 86.7512L135.674 420.031C134.956 419.738 134.239 419.441 133.523 419.139L390.187 84.9045Z" fill="#E7EAFF"/>
<path d="M383.244 76.4099C383.745 76.9913 384.242 77.5749 384.735 78.1607L125.599 415.615C124.906 415.29 124.213 414.961 123.522 414.628L383.244 76.4099Z" fill="#E7EAFF"/>
<path d="M375.96 68.3605C376.484 68.911 377.004 69.4637 377.521 70.0187L115.869 410.75C115.199 410.394 114.531 410.034 113.863 409.67L375.96 68.3605Z" fill="#E7EAFF"/>
<path d="M368.344 60.7432C368.89 61.2636 369.434 61.7864 369.974 62.3115L106.473 405.451C105.826 405.065 105.18 404.675 104.536 404.281L368.344 60.7432Z" fill="#E7EAFF"/>
<path d="M360.404 53.5471C360.973 54.0381 361.539 54.5316 362.102 55.0274L97.4013 399.729C96.7768 399.313 96.1539 398.894 95.5324 398.471L360.404 53.5471Z" fill="#E7EAFF"/>
<path d="M352.147 46.7644C352.738 47.2266 353.326 47.6912 353.911 48.1583L88.6487 393.591C88.0462 393.147 87.4454 392.699 86.8461 392.247L352.147 46.7644Z" fill="#E7EAFF"/>
<path d="M343.576 40.3897C344.188 40.8221 344.798 41.2581 345.407 41.6978L80.2097 387.045C79.6277 386.571 79.0489 386.094 78.4731 385.615L343.576 40.3897Z" fill="#E7EAFF"/>
<path d="M334.69 34.4261C335.324 34.8295 335.956 35.2365 336.587 35.6472L72.0856 380.089C71.5258 379.586 70.9692 379.08 70.4158 378.572L334.69 34.4261Z" fill="#E7EAFF"/>
<path d="M325.483 28.8804C326.139 29.2541 326.794 29.6315 327.448 30.0127L64.281 372.717C63.7439 372.184 63.21 371.649 62.6794 371.111L325.483 28.8804Z" fill="#E7EAFF"/>
<path d="M315.947 23.7626C316.627 24.1058 317.306 24.453 317.983 24.8039L56.8034 364.92C56.2893 364.356 55.7787 363.791 55.2715 363.223L315.947 23.7626Z" fill="#E7EAFF"/>
<path d="M306.074 19.0847C306.777 19.3965 307.48 19.7124 308.181 20.0322L49.6612 356.685C49.1711 356.09 48.6845 355.493 48.2014 354.894L306.074 19.0847Z" fill="#E7EAFF"/>
<path d="M295.85 14.8628C296.579 15.142 297.306 15.4253 298.032 15.7128L42.8665 347.998C42.4012 347.37 41.9396 346.741 41.4817 346.109L295.85 14.8628Z" fill="#E7EAFF"/>
<path d="M285.261 11.1164C286.016 11.3614 286.769 11.6108 287.522 11.8644L36.4335 338.839C35.994 338.178 35.5585 337.514 35.1269 336.849L285.261 11.1164Z" fill="#E7EAFF"/>
<path d="M274.288 7.87042C275.07 8.07939 275.851 8.29284 276.632 8.51079L30.3805 329.187C29.9684 328.489 29.5603 327.79 29.1565 327.089L274.288 7.87042Z" fill="#E7EAFF"/>
<path d="M262.907 5.15565C263.718 5.32612 264.529 5.50132 265.339 5.68122L24.7297 319.009C24.3468 318.274 23.9682 317.536 23.594 316.797L262.907 5.15565Z" fill="#E7EAFF"/>
<path d="M251.089 3.01122C251.931 3.14014 252.773 3.27408 253.615 3.41302L19.5102 308.271C19.1586 307.494 18.8117 306.715 18.4695 305.935L251.089 3.01122Z" fill="#E7EAFF"/>
<path d="M238.794 1.48664C239.671 1.57015 240.548 1.65899 241.424 1.75317L14.7578 296.925C14.4405 296.102 14.1282 295.279 13.821 294.453L238.794 1.48664Z" fill="#E7EAFF"/>
<path d="M225.973 0.645992C226.889 0.679 227.804 0.717765 228.719 0.762306L10.5191 284.909C10.2397 284.036 9.96582 283.162 9.69754 282.287L225.973 0.645992Z" fill="#E7EAFF"/>
<path d="M212.563 0.573797C213.522 0.549572 214.481 0.531643 215.44 0.52002L6.85526 272.145C6.6188 271.216 6.38855 270.285 6.1644 269.353L212.563 0.573797Z" fill="#E7EAFF"/>
<path d="M198.475 1.38457C199.483 1.29387 200.493 1.21014 201.503 1.13342L3.84845 258.525C3.66177 257.529 3.48196 256.533 3.30911 255.535L198.475 1.38457Z" fill="#E7EAFF"/>
<path d="M183.585 3.23922C184.654 3.06881 185.723 2.90632 186.794 2.75175L1.61343 243.9C1.48621 242.826 1.36691 241.75 1.25558 240.674L183.585 3.23922Z" fill="#E7EAFF"/>
<path d="M167.711 6.37588C168.854 6.10574 169.999 5.84484 171.146 5.5932L0.317566 228.052C0.264404 226.879 0.220703 225.705 0.186432 224.531L167.711 6.37588Z" fill="#E7EAFF"/>
<path d="M150.562 11.1723C151.804 10.7696 153.05 10.3781 154.299 9.99795L0.22229 210.641C0.26712 209.336 0.323669 208.032 0.391937 206.728L150.562 11.1723Z" fill="#E7EAFF"/>
<path d="M131.625 18.2977C133.011 17.7011 134.403 17.1194 135.8 16.5524L1.77777 191.08C1.96478 189.584 2.16754 188.09 2.38589 186.596L131.625 18.2977Z" fill="#E7EAFF"/>
<path d="M109.804 29.1775C111.438 28.2446 113.082 27.3339 114.737 26.4457L5.89713 168.18C6.32812 166.353 6.78333 164.529 7.26279 162.71L109.804 29.1775Z" fill="#E7EAFF"/>
<path d="M81.579 48.3978C83.8637 46.5619 86.1794 44.7775 88.5245 43.0449L15.1661 138.574C16.2346 135.862 17.3607 133.164 18.5446 130.483L81.579 48.3978Z" fill="#E7EAFF"/>
<path d="M274.313 428.689L435.776 218.427C435.776 219.671 435.766 220.915 435.745 222.159L277.911 427.695C276.714 428.037 275.514 428.368 274.313 428.689Z" fill="#E7EAFF"/>
<path d="M296.01 421.661C294.692 422.166 293.369 422.657 292.043 423.136L434.989 236.987C434.87 238.392 434.736 239.796 434.589 241.199L296.01 421.661Z" fill="#E7EAFF"/>
<path d="M316.412 412.628C314.903 413.391 313.385 414.137 311.861 414.863L432.115 258.265C431.806 259.926 431.478 261.584 431.13 263.239L316.412 412.628Z" fill="#E7EAFF"/>
<path d="M341.102 398.012C339.197 399.318 337.274 400.591 335.334 401.831L425.585 284.304C424.888 286.498 424.154 288.684 423.384 290.861L341.102 398.012Z" fill="#E7EAFF"/>
<path d="M408.055 324.667L369.807 374.475C377.226 367.245 384.219 359.396 390.713 350.939C397.208 342.482 402.985 333.7 408.055 324.667Z" fill="#E7EAFF"/>
</g>
</svg>
