<svg width="159" height="159" viewBox="0 0 159 159" fill="none" xmlns="http://www.w3.org/2000/svg">
<path fill-rule="evenodd" clip-rule="evenodd" d="M158.355 73.7724C158.386 74.1808 158.415 74.5896 158.44 74.9985L95.4625 157.024C95.061 157.105 94.6588 157.184 94.2561 157.259L158.355 73.7724ZM157.734 68.2345C157.79 68.6106 157.843 68.9871 157.893 69.3639L89.8778 157.951C89.5008 157.999 89.1234 158.046 88.7457 158.089L157.734 68.2345ZM156.802 63.1025C156.877 63.4522 156.95 63.8024 157.021 64.153L84.6185 158.454C84.2615 158.477 83.9044 158.496 83.547 158.514L156.802 63.1025ZM155.609 58.3082C155.701 58.6356 155.792 58.9635 155.88 59.2918L79.6276 158.607C79.2876 158.607 78.9475 158.605 78.6074 158.6L155.609 58.3082ZM154.193 53.8068C154.3 54.1146 154.405 54.4231 154.508 54.7321L74.8683 158.46C74.5431 158.44 74.2179 158.418 73.8928 158.394L154.193 53.8068ZM152.578 49.5625C152.698 49.853 152.817 50.1442 152.933 50.4359L70.3111 158.048C69.9991 158.011 69.6873 157.971 69.3756 157.93L152.578 49.5625ZM150.785 45.5505C150.917 45.8253 151.048 46.1007 151.177 46.3768L65.936 157.399C65.636 157.346 65.3362 157.291 65.0366 157.234L150.785 45.5505ZM148.829 41.7513C148.972 42.0116 149.114 42.2726 149.254 42.5343L61.7273 156.534C61.4383 156.467 61.1496 156.397 60.8612 156.326L148.829 41.7513ZM146.722 38.1489C146.875 38.3957 147.027 38.6433 147.177 38.8915L57.6718 155.469C57.3932 155.388 57.1148 155.305 56.8367 155.221L146.722 38.1489ZM144.473 34.7321C144.636 34.9662 144.797 35.2011 144.958 35.4367L53.7609 154.217C53.4919 154.123 53.2233 154.027 52.955 153.93L144.473 34.7321ZM142.089 31.4899C142.261 31.7119 142.432 31.9347 142.602 32.1583L49.9852 152.787C49.7254 152.681 49.466 152.574 49.2071 152.465L142.089 31.4899ZM139.576 28.4151C139.757 28.6256 139.937 28.8368 140.116 29.0488L46.3392 151.189C46.0883 151.071 45.8378 150.952 45.5877 150.832L139.576 28.4151ZM136.94 25.502C137.13 25.7013 137.318 25.9013 137.505 26.1022L42.8184 149.428C42.576 149.299 42.3341 149.169 42.0926 149.037L136.94 25.502ZM134.184 22.7448C134.382 22.9332 134.579 23.1224 134.774 23.3125L39.4179 147.51C39.1838 147.37 38.9502 147.229 38.7171 147.087L134.184 22.7448ZM131.311 20.1404C131.517 20.3181 131.722 20.4967 131.925 20.6762L36.1353 145.439C35.9093 145.288 35.6839 145.137 35.459 144.984L131.311 20.1404ZM128.323 17.6854C128.537 17.8527 128.749 18.0209 128.961 18.1899L32.9679 143.217C32.7499 143.057 32.5324 142.894 32.3156 142.731L128.323 17.6854ZM125.221 15.3781C125.442 15.5346 125.663 15.6924 125.883 15.8515L29.9139 140.848C29.7033 140.676 29.4938 140.504 29.2854 140.33L125.221 15.3781ZM122.005 13.2198C122.235 13.3658 122.464 13.5131 122.692 13.6617L26.9741 138.33C26.7716 138.148 26.5701 137.965 26.3699 137.781L122.005 13.2198ZM118.673 11.2125C118.911 11.3478 119.148 11.4844 119.385 11.6223L24.1497 135.662C23.9553 135.469 23.7621 135.275 23.5701 135.081L118.673 11.2125ZM115.223 9.3603C115.469 9.48454 115.714 9.61017 115.959 9.7372L21.4439 132.84C21.2579 132.636 21.0731 132.431 20.8896 132.226L115.223 9.3603ZM111.65 7.66727C111.904 7.78015 112.159 7.89446 112.412 8.01021L18.8594 129.859C18.6821 129.644 18.506 129.428 18.3312 129.211L111.65 7.66727ZM107.95 6.13931C108.214 6.24037 108.477 6.34292 108.74 6.44697L16.4008 126.715C16.2324 126.488 16.0653 126.26 15.8996 126.032L107.95 6.13931ZM104.118 4.78335C104.391 4.87205 104.664 4.9623 104.937 5.0541L14.0728 123.4C13.9138 123.161 13.7562 122.921 13.6 122.68L104.118 4.78335ZM100.147 3.60829C100.43 3.68392 100.712 3.76118 100.995 3.84006L11.8819 119.906C11.7328 119.654 11.5851 119.4 11.439 119.147L100.147 3.60829ZM96.0282 2.6258C96.3218 2.6875 96.6151 2.75091 96.9081 2.81602L9.83715 116.222C9.69856 115.956 9.56157 115.689 9.42615 115.422L96.0282 2.6258ZM91.7509 1.84965C92.0558 1.89631 92.3606 1.94478 92.6651 1.99507L7.94822 112.336C7.82099 112.054 7.69545 111.772 7.57162 111.49L91.7509 1.84965ZM87.3028 1.29804C87.6202 1.32826 87.9374 1.36042 88.2546 1.39451L6.22892 108.23C6.11406 107.932 6.00106 107.634 5.88989 107.335L87.3028 1.29804ZM82.6629 0.993783C82.9941 1.00573 83.3253 1.01976 83.6564 1.03587L4.69488 103.88C4.59378 103.564 4.49468 103.248 4.3976 102.931L82.6629 0.993783ZM77.8096 0.967727C78.1565 0.958953 78.5034 0.952459 78.8505 0.948243L3.36897 99.2599C3.28342 98.9235 3.20008 98.5867 3.11897 98.2493L77.8096 0.967727ZM72.712 1.26121C73.077 1.22838 73.4422 1.19807 73.8077 1.17029L2.28109 94.3308C2.21352 93.9706 2.14848 93.6099 2.08593 93.2488L72.712 1.26121ZM67.3232 1.93261C67.7099 1.87092 68.0971 1.8121 68.4846 1.75615L1.47227 89.0371C1.42624 88.6482 1.38307 88.259 1.34279 87.8695L67.3232 1.93261ZM61.5787 3.06796C61.9924 2.97018 62.4069 2.87573 62.8221 2.78465L1.00341 83.301C0.984176 82.8764 0.968365 82.4516 0.955967 82.0266L61.5787 3.06796ZM55.3723 4.80428C55.8219 4.6585 56.2727 4.51679 56.7246 4.37918L0.969033 76.9986C0.985265 76.5265 1.00574 76.0544 1.03045 75.5824L55.3723 4.80428ZM48.5186 7.38375C49.0203 7.16779 49.524 6.9572 50.0296 6.75196L1.53218 69.9179C1.59989 69.3765 1.67325 68.8355 1.7523 68.295L48.5186 7.38375ZM40.6225 11.3218C41.2139 10.984 41.809 10.6544 42.4077 10.3329L3.02306 61.6297C3.17906 60.9683 3.34382 60.3083 3.51736 59.6497L40.6225 11.3218ZM30.4066 18.2804C31.2335 17.6157 32.0717 16.9696 32.9205 16.3423L6.37837 50.9124C6.76519 49.9303 7.17285 48.9538 7.6014 47.9832L30.4066 18.2804ZM100.156 155.922L158.587 79.8173C158.587 80.2675 158.584 80.7178 158.576 81.1682L101.458 155.562C101.025 155.686 100.591 155.806 100.156 155.922ZM108.007 153.379C107.53 153.561 107.051 153.739 106.571 153.912L158.303 86.5342C158.259 87.0427 158.211 87.5509 158.158 88.0588L108.007 153.379ZM115.389 150.11C114.843 150.386 114.294 150.656 113.742 150.919L157.263 94.2351C157.151 94.836 157.032 95.436 156.907 96.0351L115.389 150.11ZM124.323 144.821C123.634 145.293 122.938 145.754 122.236 146.203L154.901 103.658C154.648 104.452 154.383 105.243 154.105 106.031L124.323 144.821ZM142.113 127.997C139.809 130.977 137.332 133.748 134.709 136.304L148.559 118.265C146.767 121.459 144.73 124.567 142.446 127.563L142.113 127.997Z" fill="#E7EAFF"/>
</svg>
