<svg width="45" height="54" viewBox="0 0 45 54" fill="none" xmlns="http://www.w3.org/2000/svg">
<path fill-rule="evenodd" clip-rule="evenodd" d="M22.0603 0.0896999C20.5233 0.939351 16.7209 2.81317 12.5113 4.20295C8.59544 5.49578 3.51844 6.3648 0.812828 6.72998C0.34068 6.7937 -0.0111806 7.19658 0.000271707 7.67237C0.0940621 11.5689 0.331245 18.6746 0.67478 21.5228C1.13714 25.3563 3.31026 33.1618 6.73176 38.6117C10.0897 43.9605 14.9618 49.5761 22.0037 53.1011C22.2565 53.2276 22.5554 53.2276 22.8081 53.1011C29.85 49.5761 34.7221 43.9605 38.0801 38.6117C41.5016 33.1618 43.6747 25.3563 44.137 21.5228C44.4806 18.6746 44.7178 11.5689 44.8116 7.67237C44.823 7.19658 44.4711 6.7937 43.999 6.72998C41.2934 6.3648 36.2164 5.49578 32.3005 4.20295C28.0909 2.81317 24.2885 0.939351 22.7515 0.0896999C22.6454 0.0310626 22.5271 0 22.4059 0C22.2847 0 22.1664 0.0310626 22.0603 0.0896999ZM25.2232 34.7733L23.6372 21.2753L35.3264 28.2299L30.5719 29.5686L34.1137 35.0254L31.9287 36.4406L28.3869 30.9838L25.2232 34.7733Z" fill="url(#paint0_linear_86_425)"/>
<defs>
<linearGradient id="paint0_linear_86_425" x1="22.4059" y1="0" x2="22.4059" y2="53.196" gradientUnits="userSpaceOnUse">
<stop stop-color="#09A9E5"/>
<stop offset="1" stop-color="#2155CF"/>
</linearGradient>
</defs>
</svg>
