<svg width="33" height="39" viewBox="0 0 33 39" fill="none" xmlns="http://www.w3.org/2000/svg">
<path d="M31.6867 37.5067H29.7467V34.92H26.5133V28.3098C26.5133 26.5638 25.6455 24.9419 24.1924 23.9732L17.3326 19.4L24.1924 14.8268C25.6455 13.8581 26.5133 12.2362 26.5133 10.4902V3.88H29.7467V1.29333H31.6867C32.0436 1.29333 32.3333 1.00427 32.3333 0.646667C32.3333 0.28906 32.0436 0 31.6867 0H29.7467H29.1H3.23333H2.58667H0.646667C0.289707 0 0 0.28906 0 0.646667C0 1.00427 0.289707 1.29333 0.646667 1.29333H2.58667V3.88H5.82V10.4902C5.82 12.2362 6.68783 13.8581 8.14089 14.8268L15.0007 19.4L8.14089 23.9732C6.68783 24.9419 5.82 26.5638 5.82 28.3098V34.92H2.58667V37.5067H0.646667C0.289707 37.5067 0 37.7957 0 38.1533C0 38.5109 0.289707 38.8 0.646667 38.8H2.58667H3.23333H29.1H29.7467H31.6867C32.0436 38.8 32.3333 38.5109 32.3333 38.1533C32.3333 37.7957 32.0436 37.5067 31.6867 37.5067ZM3.88 2.58667V1.29333H28.4533V2.58667H26.5133H5.82H3.88ZM8.85804 13.7507C7.76582 13.0219 7.11333 11.803 7.11333 10.4902V3.88H25.22V10.4902C25.22 11.803 24.5675 13.0219 23.4753 13.7507L16.1667 18.6227L8.85804 13.7507ZM7.11333 28.3098C7.11333 26.997 7.76582 25.7781 8.85804 25.0493L16.1667 20.1773L23.4753 25.0493C24.5675 25.7781 25.22 26.997 25.22 28.3098V34.92H7.11333V28.3098ZM3.88 36.2133H5.82H26.5133H28.4533V37.5067H3.88V36.2133Z" fill="#2155CF"/>
<path d="M10.2921 11.5984C9.9209 11.3508 9.6991 10.9363 9.6991 10.4901V9.05316C9.6991 8.69555 9.40939 8.40649 9.05243 8.40649C8.69547 8.40649 8.40576 8.69555 8.40576 9.05316V10.4901C8.40576 11.3702 8.84291 12.1869 9.57494 12.6745L12.5742 14.674C12.6841 14.7471 12.8089 14.7826 12.9324 14.7826C13.1413 14.7826 13.3463 14.6817 13.4711 14.4949C13.669 14.1974 13.5888 13.7965 13.292 13.5979L10.2921 11.5984Z" fill="#2155CF"/>
<path d="M22.7569 26.6822L19.7577 24.6827C19.4602 24.4842 19.0593 24.5644 18.8608 24.8619C18.6629 25.1593 18.7431 25.5603 19.0399 25.7588L22.0391 27.7583C22.411 28.006 22.6328 28.4198 22.6328 28.8667V30.3036C22.6328 30.6612 22.9225 30.9502 23.2794 30.9502C23.6364 30.9502 23.9261 30.6612 23.9261 30.3036V28.8667C23.9261 27.9859 23.4889 27.1698 22.7569 26.6822Z" fill="#2155CF"/>
</svg>
