<svg width="46" height="46" viewBox="0 0 46 46" fill="none" xmlns="http://www.w3.org/2000/svg">
<path d="M34.164 34.2853H1.34963V11.4048H6.6643C7.03698 11.4048 7.33912 11.1027 7.33912 10.73C7.33912 10.3573 7.03698 10.0552 6.6643 10.0552H0.674816C0.302138 10.0552 0 10.3573 0 10.73V34.9601C0 35.3328 0.302138 35.6349 0.674816 35.6349H6.54419L9.05828 41.056C9.21295 41.3896 9.62036 41.5393 9.95435 41.3843L12.4159 40.2428L19.8783 45.5671C20.1777 45.7807 20.6063 45.7087 20.8196 45.4098L27.794 35.6348H34.1641C34.5368 35.6348 34.839 35.3327 34.839 34.96C34.8388 34.5874 34.5366 34.2853 34.164 34.2853ZM8.03184 35.6349H19.1441L9.99862 39.8761L8.03184 35.6349ZM20.1128 44.0766L13.8242 39.5897L22.3523 35.6349H26.1358L20.1128 44.0766Z" fill="#2155CF"/>
<path d="M45.3253 10.0553H39.4559L36.9419 4.63409C36.7874 4.301 36.3795 4.15102 36.0458 4.30586L33.5843 5.44738L26.122 0.122994C25.8225 -0.0904279 25.394 -0.0186274 25.1806 0.280451L18.2063 10.0554H9.36134C8.98866 10.0554 8.68652 10.3575 8.68652 10.7302C8.68652 11.1029 8.98866 11.405 9.36134 11.405H18.5527C18.5529 11.405 18.5531 11.4051 18.5532 11.4051C18.5535 11.4051 18.5538 11.405 18.554 11.405H39.0229C39.0237 11.405 39.0245 11.4052 39.0254 11.4052C39.0265 11.4052 39.0276 11.405 39.0287 11.405H44.6504V34.2855H36.8609C36.4881 34.2855 36.1861 34.5877 36.1861 34.9603C36.1861 35.333 36.4881 35.6351 36.8609 35.6351H45.3252C45.6979 35.6351 46 35.333 46 34.9603V10.7301C46.0001 10.3574 45.698 10.0553 45.3253 10.0553ZM37.9682 10.0553H26.8559L36.0015 5.81412L37.9682 10.0553ZM25.8874 1.61362L32.176 6.10052L23.6479 10.0554H19.8644L25.8874 1.61362Z" fill="#2155CF"/>
<path d="M22.9829 29.4236C26.5343 29.4236 29.4234 26.5344 29.4234 22.9832C29.4234 19.4319 26.5343 16.5427 22.9829 16.5427C19.4317 16.5427 16.5425 19.4318 16.5425 22.9832C16.5425 26.5344 19.4317 29.4236 22.9829 29.4236ZM22.9829 17.8924C25.79 17.8924 28.0737 20.176 28.0737 22.9832C28.0737 25.7902 25.79 28.074 22.9829 28.074C20.1759 28.074 17.8921 25.7902 17.8921 22.9832C17.8921 20.1761 20.1759 17.8924 22.9829 17.8924Z" fill="#2155CF"/>
<path d="M17.2873 32.3274H37.8438C38.2166 32.3274 38.5187 32.0253 38.5187 31.6526C38.5187 29.9538 40.2318 28.2865 41.9771 28.2865C42.3499 28.2865 42.652 27.9843 42.652 27.6116V18.0771C42.652 17.7044 42.3499 17.4023 41.9771 17.4023C40.2318 17.4023 38.5187 15.735 38.5187 14.0361C38.5187 13.6635 38.2166 13.3613 37.8438 13.3613H7.78915C7.41648 13.3613 7.11434 13.6635 7.11434 14.0361C7.11434 15.839 5.66978 17.4203 4.02296 17.4203C3.65028 17.4203 3.34814 17.7224 3.34814 18.0951V27.5935C3.34814 27.9661 3.65028 28.2683 4.02296 28.2683C5.66978 28.2683 7.11434 29.8497 7.11434 31.6524C7.11434 32.0251 7.41648 32.3273 7.78915 32.3273H14.5881C14.9607 32.3273 15.2629 32.0251 15.2629 31.6524C15.2629 31.2798 14.9607 30.9776 14.5881 30.9776H8.41376C8.27358 30.0307 7.8444 29.1139 7.18929 28.3883C6.49783 27.6224 5.63091 27.1347 4.69769 26.9756V18.7128C5.63082 18.5537 6.49774 18.066 7.18929 17.3001C7.8444 16.5746 8.27358 15.6577 8.41376 14.7108H37.2285C37.5689 16.6504 39.3238 18.3679 41.3023 18.6956V26.9927C39.3238 27.3203 37.5689 29.0379 37.2285 30.9775H17.2873C16.9146 30.9775 16.6125 31.2797 16.6125 31.6524C16.6125 32.0253 16.9146 32.3274 17.2873 32.3274Z" fill="#2155CF"/>
</svg>
