<svg width="37" height="37" viewBox="0 0 37 37" fill="none" xmlns="http://www.w3.org/2000/svg">
<path d="M36.7965 16.8831L18.4997 0L0.203626 16.8831C-0.0541011 17.1215 -0.0694117 17.5228 0.170454 17.7795C0.409043 18.0356 0.814134 18.0502 1.07186 17.8125L3.18918 15.8587V37H13.3962H23.6032H33.8103V15.858L35.9276 17.8119C36.0501 17.9253 36.2064 17.9811 36.362 17.9811C36.5336 17.9811 36.704 17.9133 36.829 17.7789C37.0695 17.5228 37.0542 17.1215 36.7965 16.8831ZM14.6721 35.7321V25.5891C14.6721 23.4913 16.3888 21.7854 18.4997 21.7854C20.6107 21.7854 22.3274 23.4913 22.3274 25.5891V35.7321H14.6721ZM32.5344 35.7321H23.6032V25.5891C23.6032 22.7927 21.3137 20.5175 18.4997 20.5175C15.6858 20.5175 13.3962 22.7927 13.3962 25.5891V35.7321H4.46506V14.6808L18.4997 1.73003L32.5344 14.6808V35.7321Z" fill="#2155CF"/>
</svg>
