<svg width="14" height="14" viewBox="0 0 14 14" fill="none" xmlns="http://www.w3.org/2000/svg">
<path d="M13.3635 0H8.27261C7.92117 0 7.63624 0.284922 7.63624 0.636371C7.63624 0.98782 7.92117 1.27274 8.27261 1.27274H11.8272L5.27722 7.82277C5.02869 8.0713 5.02869 8.47418 5.27722 8.72271C5.40144 8.84696 5.5643 8.90909 5.72716 8.90909C5.89002 8.90909 6.0529 8.84699 6.17715 8.72268L12.7272 2.17268V5.72729C12.7272 6.07873 13.0121 6.36366 13.3636 6.36366C13.715 6.36366 13.9999 6.07873 13.9999 5.72729V0.636371C13.9999 0.284922 13.715 0 13.3635 0Z" fill="#2155CF"/>
<path d="M10.8182 6.36358C10.4667 6.36358 10.1818 6.6485 10.1818 6.99995V12.7272H1.27271V3.81813H7C7.35145 3.81813 7.63637 3.5332 7.63637 3.18175C7.63637 2.8303 7.35145 2.54541 7 2.54541H0.636371C0.284922 2.54541 0 2.83033 0 3.18178V13.3636C0 13.715 0.284922 14 0.636371 14H10.8182C11.1696 14 11.4546 13.715 11.4546 13.3636V6.99995C11.4545 6.6485 11.1696 6.36358 10.8182 6.36358Z" fill="#2155CF"/>
</svg>
