<svg width="17" height="13" viewBox="0 0 17 13" fill="none" xmlns="http://www.w3.org/2000/svg">
<path d="M1.54859 3.90755C1.75269 4.05157 2.36792 4.47932 3.39431 5.19058C4.42073 5.90183 5.20704 6.44948 5.75327 6.83355C5.81328 6.87565 5.94078 6.96717 6.13583 7.10823C6.33091 7.24938 6.493 7.36345 6.62198 7.45046C6.75106 7.53743 6.9071 7.635 7.09026 7.74301C7.27335 7.85093 7.44595 7.9321 7.60801 7.98584C7.7701 8.04001 7.92015 8.06685 8.05818 8.06685H8.06723H8.07631C8.21434 8.06685 8.36445 8.03998 8.52655 7.98584C8.68855 7.9321 8.8613 7.85083 9.04424 7.74301C9.22727 7.63488 9.38331 7.5374 9.51238 7.45046C9.64146 7.36345 9.80343 7.24938 9.99857 7.10823C10.1936 6.96704 10.3212 6.87565 10.3813 6.83355C10.9334 6.44948 12.3381 5.47405 14.5949 3.90736C15.033 3.60137 15.3991 3.23215 15.6932 2.79996C15.9875 2.36795 16.1345 1.91475 16.1345 1.44061C16.1345 1.0444 15.9918 0.705232 15.7067 0.423145C15.4216 0.140996 15.0839 0 14.6938 0H1.44052C0.978362 0 0.622703 0.156038 0.373603 0.468115C0.124534 0.780255 0 1.17041 0 1.63856C0 2.0167 0.165121 2.42648 0.495204 2.86763C0.825257 3.30882 1.1765 3.65549 1.54859 3.90755Z" fill="#A0ABC1"/>
<path d="M15.234 4.87166C13.2654 6.20407 11.7706 7.23958 10.7503 7.97795C10.4082 8.22996 10.1307 8.42668 9.91752 8.56764C9.70437 8.7087 9.4209 8.85275 9.06669 8.99974C8.71261 9.14695 8.38262 9.22033 8.07644 9.22033H8.06726H8.05821C7.75209 9.22033 7.42192 9.14695 7.06783 8.99974C6.71375 8.85275 6.43009 8.7087 6.217 8.56764C6.00398 8.42668 5.72634 8.22996 5.38424 7.97795C4.57387 7.38376 3.08229 6.34819 0.909457 4.87166C0.567232 4.64372 0.264111 4.38245 0 4.08838V11.237C0 11.6334 0.140996 11.9724 0.423145 12.2545C0.705232 12.5367 1.04443 12.6778 1.44061 12.6778H14.694C15.0901 12.6778 15.4292 12.5367 15.7113 12.2545C15.9936 11.9723 16.1345 11.6335 16.1345 11.237V4.08838C15.8763 4.37636 15.5763 4.63764 15.234 4.87166Z" fill="#A0ABC1"/>
</svg>
