<svg width="14" height="15" viewBox="0 0 14 15" fill="none" xmlns="http://www.w3.org/2000/svg">
<path d="M13.9705 10.8483C13.9309 10.729 13.679 10.5532 13.2148 10.3214C13.0891 10.2483 12.91 10.149 12.6781 10.0231C12.4461 9.89708 12.2355 9.781 12.0467 9.67491C11.8575 9.56885 11.6803 9.46611 11.5146 9.36681C11.4882 9.34692 11.4053 9.289 11.2661 9.19267C11.1267 9.09661 11.0092 9.02531 10.9129 8.97882C10.8168 8.9326 10.7223 8.90933 10.6295 8.90933C10.4969 8.90933 10.3314 9.00386 10.1326 9.19267C9.93375 9.38172 9.75139 9.58707 9.58575 9.80935C9.42006 10.0315 9.24435 10.2369 9.05892 10.4258C8.87322 10.6148 8.72063 10.7093 8.60145 10.7093C8.54161 10.7093 8.46701 10.6926 8.3776 10.6597C8.28823 10.6265 8.22024 10.5982 8.17357 10.5753C8.12732 10.5519 8.04795 10.5056 7.93517 10.4358C7.82219 10.3662 7.75935 10.3281 7.74612 10.3214C6.83795 9.81746 6.05908 9.2407 5.40934 8.59124C4.75982 7.9414 4.18298 7.1626 3.67918 6.25433C3.67257 6.24106 3.63436 6.17805 3.56481 6.06542C3.49515 5.95267 3.44872 5.87323 3.42553 5.8267C3.40233 5.78034 3.37415 5.71236 3.34107 5.62288C3.30798 5.5334 3.29136 5.45887 3.29136 5.39914C3.29136 5.27988 3.38586 5.12733 3.5748 4.9417C3.76371 4.75616 3.96927 4.58042 4.19127 4.41481C4.41345 4.24919 4.6188 4.06683 4.80778 3.86803C4.99669 3.66912 5.09115 3.50347 5.09115 3.37091C5.09115 3.27816 5.06795 3.1836 5.02159 3.08751C4.9752 2.99121 4.90394 2.8737 4.80778 2.73442C4.71158 2.5952 4.65359 2.51242 4.63367 2.48577C4.53434 2.32016 4.4317 2.14285 4.3255 1.9539C4.21931 1.76499 4.1034 1.55441 3.97739 1.32242C3.85148 1.09053 3.75212 0.911472 3.67911 0.785531C3.44722 0.321575 3.27158 0.0695533 3.15222 0.029918C3.1058 0.0100307 3.03614 0 2.94342 0C2.76433 0 2.5307 0.0330874 2.24235 0.0994713C1.9539 0.165751 1.72692 0.235269 1.56117 0.308305C1.2297 0.447447 0.878384 0.85181 0.507109 1.52126C0.169025 2.14428 0 2.76092 0 3.37074C0 3.54959 0.011598 3.72359 0.0347941 3.89279C0.0579901 4.06181 0.0994365 4.25243 0.159168 4.46461C0.218795 4.67672 0.266894 4.83428 0.303255 4.93689C0.339651 5.03957 0.407602 5.2235 0.507074 5.48875C0.606406 5.75394 0.666137 5.91628 0.686025 5.97594C0.91802 6.62564 1.19313 7.20564 1.5113 7.71613C2.03477 8.56463 2.74915 9.44152 3.654 10.3464C4.55889 11.2513 5.43561 11.9656 6.28418 12.4893C6.79459 12.8075 7.37481 13.0825 8.0244 13.3147C8.0841 13.3345 8.24644 13.3941 8.51152 13.4938C8.77671 13.5932 8.96071 13.6611 9.06338 13.6976C9.16609 13.7341 9.32369 13.7822 9.53563 13.8419C9.74801 13.9017 9.93846 13.9431 10.1075 13.9665C10.2766 13.9894 10.4507 14.0012 10.6295 14.0012C11.2393 14.0012 11.856 13.832 12.4791 13.494C13.1485 13.1229 13.5528 12.7715 13.692 12.4398C13.7652 12.2742 13.8345 12.0471 13.9008 11.7587C13.9673 11.4704 14.0003 11.2368 14.0003 11.0577C14.0005 10.9646 13.9905 10.8951 13.9705 10.8483Z" fill="#A0ABC1"/>
</svg>
