<svg width="149" height="136" viewBox="0 0 149 136" fill="none" xmlns="http://www.w3.org/2000/svg">
<path d="M146.684 2.9248H2.31641V133.396H146.684V2.9248Z" fill="white"/>
<path d="M11.5807 2.9248H2.31641V133.396H11.5807V2.9248Z" fill="#E7EAFF"/>
<path d="M146.684 2.9248H2.31641V21.4533H146.684V2.9248Z" fill="#2155CF"/>
<path d="M11.5807 2.9248H2.31641V21.4533H11.5807V2.9248Z" fill="#1C3F8E"/>
<path d="M81.6423 119.5H67.3599C63.4159 119.5 60.2188 116.389 60.2188 112.552C60.2188 108.714 63.4159 105.604 67.3599 105.604H81.6423C85.5864 105.604 88.7835 108.714 88.7835 112.552C88.7835 116.389 85.5864 119.5 81.6423 119.5Z" fill="#A0ABC1"/>
<path d="M84.0441 114.79H69.749C65.8014 114.79 62.6014 111.627 62.6014 107.725C62.6014 107.53 62.6115 107.338 62.6269 107.148C61.1503 108.443 60.2188 110.331 60.2188 112.435C60.2188 116.337 63.4188 119.5 67.3663 119.5H81.6615C85.4126 119.5 88.4863 116.644 88.7835 113.012C87.5218 114.118 85.8629 114.79 84.0441 114.79Z" fill="#8A93A4"/>
<path d="M111.943 49.2461H37.0566V96.3394H111.943V49.2461Z" fill="#A0ABC1"/>
<path d="M92.6426 73.9507L102.441 110.533L112.24 100.555L128.571 117.184L135.104 110.533L118.772 93.9044L128.571 83.9274L92.6426 73.9507Z" fill="#F7941E"/>
<path d="M112.096 93.668L105.232 99.7431L97.7345 75.358L92.6426 73.9507L102.486 110.533L112.329 100.555L128.735 117.184L132.016 113.858L112.096 93.668Z" fill="#CE7B18"/>
<path d="M146.813 0.608887H2.18698C0.979266 0.608887 0 1.58888 0 2.79748V133.524C0 134.733 0.979266 135.713 2.18698 135.713H146.813C148.021 135.713 149 134.733 149 133.524V2.79748C149 1.58888 148.02 0.608887 146.813 0.608887ZM4.37367 131.335V23.6612H19.0015C20.2092 23.6612 21.1885 22.6812 21.1885 21.4726C21.1885 20.264 20.2092 19.284 19.0015 19.284H4.37367V4.98578H144.626V19.284H29.1097C27.9019 19.284 26.9227 20.264 26.9227 21.4726C26.9227 22.6812 27.9019 23.6612 29.1097 23.6612H144.626V131.335H4.37367Z" fill="#0A2C7D"/>
<path d="M81.897 103.288H67.8755C62.8018 103.288 58.6738 107.444 58.6738 112.552C58.6738 117.66 62.8018 121.816 67.8755 121.816H81.897C86.9707 121.816 91.0987 117.66 91.0987 112.552C91.0987 107.444 86.9707 103.288 81.897 103.288ZM81.897 117.404H67.8755C65.2178 117.404 63.0557 115.227 63.0557 112.552C63.0557 109.876 65.2178 107.699 67.8755 107.699H81.897C84.5547 107.699 86.7168 109.876 86.7168 112.552C86.7168 115.227 84.5547 117.404 81.897 117.404Z" fill="#0A2C7D"/>
<path d="M128.011 14.5052H128.301C129.5 14.5052 130.472 13.4681 130.472 12.1891C130.472 10.9101 129.5 9.87305 128.301 9.87305H128.011C126.812 9.87305 125.84 10.9101 125.84 12.1891C125.84 13.4681 126.812 14.5052 128.011 14.5052Z" fill="white"/>
<path d="M137.275 14.5052H137.564C138.763 14.5052 139.736 13.4681 139.736 12.1891C139.736 10.9101 138.763 9.87305 137.564 9.87305H137.275C136.076 9.87305 135.104 10.9101 135.104 12.1891C135.104 13.4681 136.076 14.5052 137.275 14.5052Z" fill="#F7941E"/>
<path d="M117.974 14.5052H118.264C119.463 14.5052 120.435 13.4681 120.435 12.1891C120.435 10.9101 119.463 9.87305 118.264 9.87305H117.974C116.775 9.87305 115.803 10.9101 115.803 12.1891C115.803 13.4681 116.775 14.5052 117.974 14.5052Z" fill="white"/>
<path d="M121.782 94.0345L130.159 85.6195C131.33 84.4435 130.779 82.3715 129.185 81.9349L114.019 77.7798V49.1341C114.019 47.917 113.036 46.9302 111.825 46.9302H36.9363C35.7246 46.9302 34.7422 47.917 34.7422 49.1341V96.1486C34.7422 97.3657 35.7246 98.3525 36.9363 98.3525H96.5162L100.014 111.236C100.449 112.838 102.512 113.391 103.682 112.215L112.06 103.8L127.057 118.863C127.902 119.712 129.314 119.712 130.159 118.863L136.778 112.215C137.635 111.354 137.635 109.959 136.778 109.098L121.782 94.0345ZM39.1301 93.945V51.338H109.631V76.5777L92.7791 71.9614C91.1716 71.5209 89.6467 73.0527 90.0852 74.6674L95.3192 93.9447H39.1301V93.945ZM128.608 114.189L113.611 99.1253C112.766 98.276 111.354 98.2763 110.509 99.1253L103.253 106.413L95.3291 77.2291L124.383 85.1884L117.128 92.4766C116.271 93.3374 116.271 94.7327 117.128 95.5932L132.124 110.657L128.608 114.189Z" fill="#0A2C7D"/>
<path d="M36.9591 42.2981H84.2507C85.4749 42.2981 86.4676 41.2611 86.4676 39.9821C86.4676 38.7031 85.4749 37.666 84.2507 37.666H36.9591C35.7348 37.666 34.7422 38.7031 34.7422 39.9821C34.7422 41.2611 35.7346 42.2981 36.9591 42.2981Z" fill="#0A2C7D"/>
<path d="M90.9755 42.2981H114.38C115.591 42.2981 116.574 41.2611 116.574 39.9821C116.574 38.7031 115.591 37.666 114.38 37.666H90.9755C89.7638 37.666 88.7812 38.7031 88.7812 39.9821C88.7812 41.2611 89.7635 42.2981 90.9755 42.2981Z" fill="#0A2C7D"/>
</svg>
