<svg width="171" height="54" viewBox="0 0 171 54" fill="none" xmlns="http://www.w3.org/2000/svg">
<path d="M64.6011 22.4833C62.7385 22.4833 61.1966 21.8851 59.9754 20.6886C58.7665 19.4797 58.1621 17.9501 58.1621 16.0998C58.1621 14.2495 58.7665 12.7261 59.9754 11.5296C61.1966 10.3207 62.7385 9.71631 64.6011 9.71631C66.4761 9.71631 68.018 10.3146 69.2269 11.5111C70.4481 12.7076 71.0587 14.2372 71.0587 16.0998C71.0587 17.9625 70.4481 19.492 69.2269 20.6886C68.018 21.8851 66.4761 22.4833 64.6011 22.4833ZM61.8812 19.0048C62.572 19.7696 63.4786 20.152 64.6011 20.152C65.7236 20.152 66.6303 19.7696 67.3211 19.0048C68.0118 18.24 68.3572 17.2717 68.3572 16.0998C68.3572 14.928 68.0118 13.9597 67.3211 13.1949C66.6303 12.4301 65.7236 12.0477 64.6011 12.0477C63.4786 12.0477 62.572 12.4301 61.8812 13.1949C61.2028 13.9597 60.8635 14.928 60.8635 16.0998C60.8635 17.2717 61.2028 18.24 61.8812 19.0048Z" fill="#001237"/>
<path d="M75.1968 22.2613H72.8469V13.3244H75.1968V16.6364H78.8974V13.3244H81.2473V22.2613H78.8974V18.6902H75.1968V22.2613Z" fill="#001237"/>
<path d="M82.7475 22.4833V20.559C83.1175 20.559 83.4136 20.3432 83.6356 19.9114C83.8576 19.4674 84.0365 18.7149 84.1722 17.6541L84.7458 13.3244H91.9804V22.2613H89.6306V15.3782H86.7996L86.5036 17.9316C86.3185 19.4982 85.9238 20.6516 85.3194 21.3917C84.7273 22.1195 83.87 22.4833 82.7475 22.4833Z" fill="#001237"/>
<path d="M102.029 22.2613H99.6791V21.3362C99.0377 22.1009 98.094 22.4833 96.8482 22.4833C96.0464 22.4833 95.3247 22.2243 94.6833 21.7062C94.0542 21.1758 93.7397 20.448 93.7397 19.5229C93.7397 18.5607 94.048 17.8391 94.6648 17.358C95.2939 16.877 96.0217 16.6364 96.8482 16.6364C98.1187 16.6364 99.0623 17.0003 99.6791 17.7281V16.5254C99.6791 16.069 99.5002 15.7051 99.1425 15.4337C98.7848 15.1623 98.3099 15.0267 97.7178 15.0267C96.7433 15.0267 95.8737 15.3782 95.1089 16.0813L94.2207 14.5086C95.2816 13.5711 96.583 13.1023 98.1249 13.1023C99.272 13.1023 100.21 13.3676 100.937 13.898C101.665 14.4284 102.029 15.2919 102.029 16.4884V22.2613ZM97.7918 20.8921C98.6676 20.8921 99.2967 20.633 99.6791 20.115V19.0048C99.2967 18.4867 98.6676 18.2277 97.7918 18.2277C97.3107 18.2277 96.9098 18.351 96.5891 18.5977C96.2684 18.8321 96.108 19.159 96.108 19.5784C96.108 19.9854 96.2684 20.3062 96.5891 20.5405C96.9098 20.7749 97.3107 20.8921 97.7918 20.8921Z" fill="#001237"/>
<path d="M106.617 22.2613H104.36V13.3244H106.71V18.7272L110.392 13.3244H112.76V22.2613H110.41V16.6549L106.617 22.2613ZM111.798 10.808C110.996 11.8935 109.917 12.4362 108.56 12.4362C107.215 12.4362 106.13 11.8935 105.303 10.808L106.34 9.93834C106.882 10.7031 107.622 11.0855 108.56 11.0855C109.473 11.0855 110.207 10.7031 110.762 9.93834L111.798 10.808Z" fill="#001237"/>
<path d="M117.443 22.2613H115.093V13.3244H117.443V16.6364H121.143V13.3244H123.493V22.2613H121.143V18.6902H117.443V22.2613Z" fill="#001237"/>
<path d="M65.3088 40.4081C63.4338 40.4081 61.8672 39.8161 60.609 38.6319C59.3632 37.4353 58.7402 35.8996 58.7402 34.0246C58.7402 32.1497 59.3632 30.6201 60.609 29.4359C61.8672 28.2394 63.4338 27.6411 65.3088 27.6411C67.6155 27.6411 69.3363 28.6464 70.4711 30.6571L68.2137 31.7673C67.9424 31.2492 67.5415 30.8236 67.0111 30.4906C66.493 30.1452 65.9255 29.9725 65.3088 29.9725C64.1863 29.9725 63.2611 30.3549 62.5333 31.1197C61.8056 31.8845 61.4417 32.8528 61.4417 34.0246C61.4417 35.1965 61.8056 36.1648 62.5333 36.9296C63.2611 37.6944 64.1863 38.0768 65.3088 38.0768C65.9255 38.0768 66.493 37.9102 67.0111 37.5772C67.5415 37.2441 67.9424 36.8124 68.2137 36.282L70.4711 37.3737C69.2993 39.3967 67.5785 40.4081 65.3088 40.4081Z" fill="url(#paint0_linear_86_439)"/>
<path d="M75.9947 40.1861H73.6263V33.303H71.1284V31.2492H78.4926V33.303H75.9947V40.1861Z" fill="url(#paint1_linear_86_439)"/>
<path d="M85.073 40.4081C83.9505 40.4081 83.0315 39.9517 82.316 39.0389V43.5907H79.9662V31.2492H82.316V32.3779C83.0191 31.4774 83.9381 31.0272 85.073 31.0272C86.2448 31.0272 87.1946 31.4466 87.9224 32.2854C88.6625 33.1118 89.0326 34.2528 89.0326 35.7084C89.0326 37.164 88.6625 38.3111 87.9224 39.1499C87.1946 39.9887 86.2448 40.4081 85.073 40.4081ZM84.3328 38.3173C85.0113 38.3173 85.554 38.0768 85.9611 37.5957C86.3805 37.1146 86.5902 36.4855 86.5902 35.7084C86.5902 34.9436 86.3805 34.3207 85.9611 33.8396C85.554 33.3585 85.0113 33.118 84.3328 33.118C83.9505 33.118 83.5681 33.2167 83.1857 33.414C82.8033 33.6114 82.5134 33.8519 82.316 34.1356V37.2997C82.5134 37.5834 82.8033 37.8239 83.1857 38.0213C83.5804 38.2186 83.9628 38.3173 84.3328 38.3173Z" fill="url(#paint2_linear_86_439)"/>
<path d="M98.4692 40.1861H96.1194V39.261C95.4779 40.0258 94.5343 40.4081 93.2884 40.4081C92.4866 40.4081 91.765 40.1491 91.1236 39.631C90.4945 39.1006 90.1799 38.3728 90.1799 37.4477C90.1799 36.4855 90.4883 35.7639 91.1051 35.2828C91.7342 34.8018 92.462 34.5612 93.2884 34.5612C94.559 34.5612 95.5026 34.9251 96.1194 35.6529V34.4502C96.1194 33.9938 95.9405 33.6299 95.5828 33.3585C95.2251 33.0871 94.7502 32.9515 94.1581 32.9515C93.1836 32.9515 92.3139 33.303 91.5491 34.0061L90.661 32.4334C91.7218 31.4959 93.0232 31.0272 94.5651 31.0272C95.7123 31.0272 96.6498 31.2924 97.3776 31.8228C98.1054 32.3532 98.4692 33.2167 98.4692 34.4132V40.1861ZM94.2321 38.8169C95.1079 38.8169 95.737 38.5579 96.1194 38.0398V36.9296C95.737 36.4115 95.1079 36.1525 94.2321 36.1525C93.751 36.1525 93.3501 36.2758 93.0294 36.5225C92.7087 36.7569 92.5483 37.0838 92.5483 37.5032C92.5483 37.9103 92.7087 38.231 93.0294 38.4653C93.3501 38.6997 93.751 38.8169 94.2321 38.8169Z" fill="url(#paint3_linear_86_439)"/>
<path d="M108.96 40.1861H106.332L104.297 37.1701L102.243 40.1861H99.6344L102.798 35.5974L99.8194 31.2492H102.447L104.297 34.0061L106.129 31.2492H108.756L105.759 35.5974L108.96 40.1861Z" fill="url(#paint4_linear_86_439)"/>
<path d="M117.078 39.0574C116.214 39.9579 115.067 40.4081 113.636 40.4081C112.205 40.4081 111.058 39.9579 110.194 39.0574C109.343 38.1446 108.918 37.0283 108.918 35.7084C108.918 34.3885 109.343 33.2783 110.194 32.3779C111.058 31.4774 112.205 31.0272 113.636 31.0272C115.067 31.0272 116.214 31.4774 117.078 32.3779C117.941 33.2783 118.373 34.3885 118.373 35.7084C118.373 37.0283 117.941 38.1446 117.078 39.0574ZM111.971 37.5772C112.378 38.0706 112.933 38.3173 113.636 38.3173C114.339 38.3173 114.894 38.0706 115.301 37.5772C115.721 37.0714 115.93 36.4485 115.93 35.7084C115.93 34.9806 115.721 34.37 115.301 33.8766C114.894 33.3709 114.339 33.118 113.636 33.118C112.933 33.118 112.378 33.3709 111.971 33.8766C111.564 34.37 111.36 34.9806 111.36 35.7084C111.36 36.4485 111.564 37.0714 111.971 37.5772Z" fill="url(#paint5_linear_86_439)"/>
<path d="M125.945 40.1861H120.116V31.2492H125.778C126.641 31.2492 127.314 31.4712 127.795 31.9153C128.276 32.3594 128.516 32.9021 128.516 33.5436C128.516 34.0616 128.375 34.4995 128.091 34.8573C127.807 35.215 127.443 35.4555 126.999 35.5789C127.493 35.6899 127.9 35.9489 128.22 36.356C128.541 36.7631 128.701 37.2318 128.701 37.7622C128.701 38.4653 128.455 39.0451 127.961 39.5015C127.48 39.9579 126.808 40.1861 125.945 40.1861ZM125.371 38.2618C125.655 38.2618 125.877 38.1878 126.037 38.0398C126.21 37.8917 126.296 37.6882 126.296 37.4292C126.296 37.1948 126.21 36.9974 126.037 36.8371C125.877 36.6767 125.655 36.5965 125.371 36.5965H122.466V38.2618H125.371ZM125.297 34.6722C125.544 34.6722 125.741 34.6044 125.889 34.4687C126.049 34.3207 126.13 34.1418 126.13 33.9321C126.13 33.7101 126.056 33.5312 125.908 33.3955C125.76 33.2475 125.556 33.1735 125.297 33.1735H122.466V34.6722H125.297Z" fill="url(#paint6_linear_86_439)"/>
<path d="M138.673 40.1861H136.324V39.261C135.682 40.0258 134.738 40.4081 133.493 40.4081C132.691 40.4081 131.969 40.1491 131.328 39.631C130.699 39.1006 130.384 38.3728 130.384 37.4477C130.384 36.4855 130.692 35.7639 131.309 35.2828C131.938 34.8018 132.666 34.5612 133.493 34.5612C134.763 34.5612 135.707 34.9251 136.324 35.6529V34.4502C136.324 33.9938 136.145 33.6299 135.787 33.3585C135.429 33.0871 134.954 32.9515 134.362 32.9515C133.388 32.9515 132.518 33.303 131.753 34.0061L130.865 32.4334C131.926 31.4959 133.227 31.0272 134.769 31.0272C135.916 31.0272 136.854 31.2924 137.582 31.8228C138.31 32.3532 138.673 33.2167 138.673 34.4132V40.1861ZM134.436 38.8169C135.312 38.8169 135.941 38.5579 136.324 38.0398V36.9296C135.941 36.4115 135.312 36.1525 134.436 36.1525C133.955 36.1525 133.554 36.2758 133.234 36.5225C132.913 36.7569 132.752 37.0838 132.752 37.5032C132.752 37.9103 132.913 38.231 133.234 38.4653C133.554 38.6997 133.955 38.8169 134.436 38.8169Z" fill="url(#paint7_linear_86_439)"/>
<path d="M143.354 40.1861H141.004V31.2492H143.354V34.5612H147.055V31.2492H149.405V40.1861H147.055V36.615H143.354V40.1861Z" fill="url(#paint8_linear_86_439)"/>
<path d="M153.995 40.1861H151.737V31.2492H154.087V36.6521L157.769 31.2492H160.138V40.1861H157.788V34.5797L153.995 40.1861Z" fill="url(#paint9_linear_86_439)"/>
<path d="M166.671 40.4081C165.289 40.4081 164.148 39.9764 163.248 39.1129C162.347 38.2495 161.897 37.1146 161.897 35.7084C161.897 34.3885 162.329 33.2783 163.192 32.3779C164.068 31.4774 165.178 31.0272 166.523 31.0272C167.855 31.0272 168.934 31.4836 169.761 32.3964C170.587 33.2968 171 34.481 171 35.9489V36.467H164.358C164.432 37.0591 164.697 37.5525 165.153 37.9473C165.61 38.342 166.202 38.5394 166.93 38.5394C167.324 38.5394 167.75 38.4592 168.206 38.2988C168.675 38.1385 169.045 37.9226 169.317 37.6512L170.353 39.1685C169.452 39.9949 168.225 40.4081 166.671 40.4081ZM168.725 34.8758C168.688 34.37 168.484 33.9136 168.114 33.5065C167.756 33.0995 167.226 32.896 166.523 32.896C165.857 32.896 165.338 33.0995 164.968 33.5065C164.598 33.9013 164.382 34.3577 164.321 34.8758H168.725Z" fill="url(#paint10_linear_86_439)"/>
<path fill-rule="evenodd" clip-rule="evenodd" d="M22.0603 0.0896999C20.5233 0.939351 16.7209 2.81317 12.5113 4.20295C8.59544 5.49578 3.51844 6.3648 0.812828 6.72998C0.34068 6.7937 -0.0111806 7.19658 0.000271707 7.67237C0.0940621 11.5689 0.331245 18.6746 0.67478 21.5228C1.13714 25.3563 3.31026 33.1618 6.73176 38.6117C10.0897 43.9605 14.9618 49.5761 22.0037 53.1011C22.2565 53.2276 22.5554 53.2276 22.8081 53.1011C29.85 49.5761 34.7221 43.9605 38.0801 38.6117C41.5016 33.1618 43.6747 25.3563 44.137 21.5228C44.4806 18.6746 44.7178 11.5689 44.8116 7.67237C44.823 7.19658 44.4711 6.7937 43.999 6.72998C41.2934 6.3648 36.2164 5.49578 32.3005 4.20295C28.091 2.81317 24.2885 0.939351 22.7515 0.0896999C22.6454 0.0310626 22.5271 0 22.4059 0C22.2847 0 22.1664 0.0310626 22.0603 0.0896999ZM25.2232 34.7733L23.6372 21.2753L35.3264 28.2299L30.5719 29.5686L34.1137 35.0254L31.9287 36.4406L28.3869 30.9838L25.2232 34.7733Z" fill="url(#paint11_linear_86_439)"/>
<defs>
<linearGradient id="paint0_linear_86_439" x1="114.921" y1="25.1524" x2="114.921" y2="43.6553" gradientUnits="userSpaceOnUse">
<stop stop-color="#09A9E5"/>
<stop offset="1" stop-color="#2155CF"/>
</linearGradient>
<linearGradient id="paint1_linear_86_439" x1="114.921" y1="25.1524" x2="114.921" y2="43.6553" gradientUnits="userSpaceOnUse">
<stop stop-color="#09A9E5"/>
<stop offset="1" stop-color="#2155CF"/>
</linearGradient>
<linearGradient id="paint2_linear_86_439" x1="114.921" y1="25.1524" x2="114.921" y2="43.6553" gradientUnits="userSpaceOnUse">
<stop stop-color="#09A9E5"/>
<stop offset="1" stop-color="#2155CF"/>
</linearGradient>
<linearGradient id="paint3_linear_86_439" x1="114.921" y1="25.1524" x2="114.921" y2="43.6553" gradientUnits="userSpaceOnUse">
<stop stop-color="#09A9E5"/>
<stop offset="1" stop-color="#2155CF"/>
</linearGradient>
<linearGradient id="paint4_linear_86_439" x1="114.921" y1="25.1524" x2="114.921" y2="43.6553" gradientUnits="userSpaceOnUse">
<stop stop-color="#09A9E5"/>
<stop offset="1" stop-color="#2155CF"/>
</linearGradient>
<linearGradient id="paint5_linear_86_439" x1="114.921" y1="25.1524" x2="114.921" y2="43.6553" gradientUnits="userSpaceOnUse">
<stop stop-color="#09A9E5"/>
<stop offset="1" stop-color="#2155CF"/>
</linearGradient>
<linearGradient id="paint6_linear_86_439" x1="114.921" y1="25.1524" x2="114.921" y2="43.6553" gradientUnits="userSpaceOnUse">
<stop stop-color="#09A9E5"/>
<stop offset="1" stop-color="#2155CF"/>
</linearGradient>
<linearGradient id="paint7_linear_86_439" x1="114.921" y1="25.1524" x2="114.921" y2="43.6553" gradientUnits="userSpaceOnUse">
<stop stop-color="#09A9E5"/>
<stop offset="1" stop-color="#2155CF"/>
</linearGradient>
<linearGradient id="paint8_linear_86_439" x1="114.921" y1="25.1524" x2="114.921" y2="43.6553" gradientUnits="userSpaceOnUse">
<stop stop-color="#09A9E5"/>
<stop offset="1" stop-color="#2155CF"/>
</linearGradient>
<linearGradient id="paint9_linear_86_439" x1="114.921" y1="25.1524" x2="114.921" y2="43.6553" gradientUnits="userSpaceOnUse">
<stop stop-color="#09A9E5"/>
<stop offset="1" stop-color="#2155CF"/>
</linearGradient>
<linearGradient id="paint10_linear_86_439" x1="114.921" y1="25.1524" x2="114.921" y2="43.6553" gradientUnits="userSpaceOnUse">
<stop stop-color="#09A9E5"/>
<stop offset="1" stop-color="#2155CF"/>
</linearGradient>
<linearGradient id="paint11_linear_86_439" x1="22.4059" y1="0" x2="22.4059" y2="53.196" gradientUnits="userSpaceOnUse">
<stop stop-color="#09A9E5"/>
<stop offset="1" stop-color="#2155CF"/>
</linearGradient>
</defs>
</svg>
