<svg width="323" height="72" viewBox="0 0 323 72" fill="none" xmlns="http://www.w3.org/2000/svg">
<path d="M86.49 43.6497C83.9962 43.6497 81.9318 42.8488 80.2968 41.2468C78.6784 39.6283 77.8691 37.5805 77.8691 35.1032C77.8691 32.626 78.6784 30.5864 80.2968 28.9844C81.9318 27.3659 83.9962 26.5567 86.49 26.5567C89.0003 26.5567 91.0646 27.3577 92.6831 28.9596C94.3181 30.5616 95.1356 32.6095 95.1356 35.1032C95.1356 37.597 94.3181 39.6448 92.6831 41.2468C91.0646 42.8488 89.0003 43.6497 86.49 43.6497ZM82.8484 38.9925C83.7733 40.0164 84.9871 40.5284 86.49 40.5284C87.9928 40.5284 89.2067 40.0164 90.1315 38.9925C91.0564 37.9686 91.5188 36.6721 91.5188 35.1032C91.5188 33.5343 91.0564 32.2379 90.1315 31.2139C89.2067 30.19 87.9928 29.678 86.49 29.678C84.9871 29.678 83.7733 30.19 82.8484 31.2139C81.9401 32.2379 81.4859 33.5343 81.4859 35.1032C81.4859 36.6721 81.9401 37.9686 82.8484 38.9925Z" fill="#001237"/>
<path d="M100.676 43.3525H97.5298V31.3873H100.676V35.8216H105.63V31.3873H108.777V43.3525H105.63V38.5714H100.676V43.3525Z" fill="#001237"/>
<path d="M110.785 43.6497V41.0734C111.28 41.0734 111.677 40.7844 111.974 40.2064C112.271 39.6118 112.511 38.6044 112.693 37.1841L113.46 31.3873H123.147V43.3525H120V34.1371H116.21L115.814 37.5557C115.566 39.6531 115.038 41.1973 114.228 42.1882C113.436 43.1625 112.288 43.6497 110.785 43.6497Z" fill="#001237"/>
<path d="M136.6 43.3525H133.454V42.1138C132.595 43.1378 131.332 43.6497 129.664 43.6497C128.59 43.6497 127.624 43.3029 126.765 42.6093C125.923 41.8991 125.502 40.9248 125.502 39.6861C125.502 38.398 125.915 37.4318 126.74 36.7878C127.583 36.1437 128.557 35.8216 129.664 35.8216C131.365 35.8216 132.628 36.3088 133.454 37.2832V35.673C133.454 35.0619 133.214 34.5747 132.735 34.2114C132.256 33.8481 131.621 33.6664 130.828 33.6664C129.523 33.6664 128.359 34.1371 127.335 35.0784L126.146 32.9728C127.566 31.7176 129.309 31.0901 131.373 31.0901C132.909 31.0901 134.164 31.4451 135.138 32.1553C136.113 32.8654 136.6 34.0215 136.6 35.6234V43.3525ZM130.927 41.5193C132.1 41.5193 132.942 41.1725 133.454 40.4789V38.9925C132.942 38.2989 132.1 37.9521 130.927 37.9521C130.283 37.9521 129.746 38.1172 129.317 38.4475C128.887 38.7613 128.673 39.1989 128.673 39.7605C128.673 40.3054 128.887 40.7348 129.317 41.0486C129.746 41.3624 130.283 41.5193 130.927 41.5193Z" fill="#001237"/>
<path d="M142.743 43.3525H139.72V31.3873H142.867V38.6209L147.796 31.3873H150.967V43.3525H147.821V35.8464L142.743 43.3525ZM149.679 28.0183C148.606 29.4716 147.161 30.1983 145.344 30.1983C143.544 30.1983 142.09 29.4716 140.984 28.0183L142.371 26.854C143.098 27.8779 144.089 28.3899 145.344 28.3899C146.566 28.3899 147.549 27.8779 148.292 26.854L149.679 28.0183Z" fill="#001237"/>
<path d="M157.237 43.3525H154.09V31.3873H157.237V35.8216H162.191V31.3873H165.337V43.3525H162.191V38.5714H157.237V43.3525Z" fill="#001237"/>
<path d="M181.495 43.6497C178.985 43.6497 176.888 42.857 175.203 41.2716C173.535 39.6696 172.701 37.6135 172.701 35.1032C172.701 32.5929 173.535 30.5451 175.203 28.9596C176.888 27.3577 178.985 26.5567 181.495 26.5567C184.584 26.5567 186.888 27.9027 188.407 30.5946L185.385 32.081C185.021 31.3873 184.485 30.8176 183.774 30.3717C183.081 29.9092 182.321 29.678 181.495 29.678C179.993 29.678 178.754 30.19 177.78 31.2139C176.805 32.2379 176.318 33.5343 176.318 35.1032C176.318 36.6721 176.805 37.9686 177.78 38.9925C178.754 40.0164 179.993 40.5284 181.495 40.5284C182.321 40.5284 183.081 40.3054 183.774 39.8595C184.485 39.4136 185.021 38.8356 185.385 38.1255L188.407 39.587C186.838 42.2955 184.534 43.6497 181.495 43.6497Z" fill="url(#paint0_linear_58_4722)"/>
<path d="M195.802 43.3525H192.631V34.1371H189.287V31.3873H199.146V34.1371H195.802V43.3525Z" fill="url(#paint1_linear_58_4722)"/>
<path d="M207.957 43.6497C206.454 43.6497 205.223 43.0387 204.265 41.8166V47.9106H201.119V31.3873H204.265V32.8985C205.207 31.6929 206.437 31.0901 207.957 31.0901C209.525 31.0901 210.797 31.6516 211.771 32.7746C212.762 33.8811 213.258 35.4087 213.258 37.3575C213.258 39.3063 212.762 40.8422 211.771 41.9652C210.797 43.0882 209.525 43.6497 207.957 43.6497ZM206.966 40.8504C207.874 40.8504 208.601 40.5284 209.146 39.8843C209.707 39.2402 209.988 38.398 209.988 37.3575C209.988 36.3336 209.707 35.4996 209.146 34.8555C208.601 34.2114 207.874 33.8894 206.966 33.8894C206.454 33.8894 205.942 34.0215 205.43 34.2857C204.918 34.55 204.53 34.872 204.265 35.2519V39.488C204.53 39.8678 204.918 40.1898 205.43 40.4541C205.958 40.7183 206.47 40.8504 206.966 40.8504Z" fill="url(#paint2_linear_58_4722)"/>
<path d="M225.892 43.3525H222.746V42.1138C221.887 43.1378 220.624 43.6497 218.956 43.6497C217.882 43.6497 216.916 43.3029 216.057 42.6093C215.215 41.8991 214.794 40.9248 214.794 39.6861C214.794 38.398 215.207 37.4318 216.033 36.7878C216.875 36.1437 217.849 35.8216 218.956 35.8216C220.657 35.8216 221.92 36.3088 222.746 37.2832V35.673C222.746 35.0619 222.506 34.5747 222.028 34.2114C221.549 33.8481 220.913 33.6664 220.12 33.6664C218.815 33.6664 217.651 34.1371 216.627 35.0784L215.438 32.9728C216.858 31.7176 218.601 31.0901 220.665 31.0901C222.201 31.0901 223.456 31.4451 224.43 32.1553C225.405 32.8654 225.892 34.0215 225.892 35.6234V43.3525ZM220.219 41.5193C221.392 41.5193 222.234 41.1725 222.746 40.4789V38.9925C222.234 38.2989 221.392 37.9521 220.219 37.9521C219.575 37.9521 219.038 38.1172 218.609 38.4475C218.18 38.7613 217.965 39.1989 217.965 39.7605C217.965 40.3054 218.18 40.7348 218.609 41.0486C219.038 41.3624 219.575 41.5193 220.219 41.5193Z" fill="url(#paint3_linear_58_4722)"/>
<path d="M239.937 43.3525H236.42L233.695 39.3145L230.945 43.3525H227.452L231.688 37.2089L227.7 31.3873H231.217L233.695 35.0784L236.147 31.3873H239.665L235.652 37.2089L239.937 43.3525Z" fill="url(#paint4_linear_58_4722)"/>
<path d="M250.806 41.8413C249.65 43.0469 248.114 43.6497 246.198 43.6497C244.282 43.6497 242.746 43.0469 241.59 41.8413C240.451 40.6192 239.881 39.1246 239.881 37.3575C239.881 35.5904 240.451 34.1041 241.59 32.8985C242.746 31.6929 244.282 31.0901 246.198 31.0901C248.114 31.0901 249.65 31.6929 250.806 32.8985C251.962 34.1041 252.54 35.5904 252.54 37.3575C252.54 39.1246 251.962 40.6192 250.806 41.8413ZM243.968 39.8595C244.513 40.5201 245.257 40.8504 246.198 40.8504C247.139 40.8504 247.882 40.5201 248.427 39.8595C248.989 39.1824 249.27 38.3484 249.27 37.3575C249.27 36.3831 248.989 35.5656 248.427 34.905C247.882 34.2279 247.139 33.8894 246.198 33.8894C245.257 33.8894 244.513 34.2279 243.968 34.905C243.423 35.5656 243.151 36.3831 243.151 37.3575C243.151 38.3484 243.423 39.1824 243.968 39.8595Z" fill="url(#paint5_linear_58_4722)"/>
<path d="M262.677 43.3525H254.874V31.3873H262.454C263.61 31.3873 264.51 31.6846 265.154 32.2792C265.798 32.8737 266.12 33.6004 266.12 34.4591C266.12 35.1528 265.931 35.739 265.551 36.218C265.171 36.6969 264.684 37.019 264.089 37.1841C264.75 37.3327 265.295 37.6796 265.724 38.2246C266.153 38.7696 266.368 39.3971 266.368 40.1073C266.368 41.0486 266.038 41.8248 265.377 42.4359C264.733 43.0469 263.833 43.3525 262.677 43.3525ZM261.909 40.7761C262.289 40.7761 262.586 40.677 262.801 40.4789C263.032 40.2807 263.148 40.0082 263.148 39.6614C263.148 39.3476 263.032 39.0833 262.801 38.8686C262.586 38.6539 262.289 38.5466 261.909 38.5466H258.02V40.7761H261.909ZM261.81 35.9703C262.14 35.9703 262.405 35.8794 262.603 35.6978C262.817 35.4996 262.925 35.2601 262.925 34.9794C262.925 34.6821 262.826 34.4426 262.628 34.261C262.429 34.0628 262.157 33.9637 261.81 33.9637H258.02V35.9703H261.81Z" fill="url(#paint6_linear_58_4722)"/>
<path d="M279.719 43.3525H276.573V42.1138C275.714 43.1378 274.451 43.6497 272.783 43.6497C271.709 43.6497 270.743 43.3029 269.884 42.6093C269.042 41.8991 268.621 40.9248 268.621 39.6861C268.621 38.398 269.034 37.4318 269.86 36.7878C270.702 36.1437 271.676 35.8216 272.783 35.8216C274.484 35.8216 275.747 36.3088 276.573 37.2832V35.673C276.573 35.0619 276.333 34.5747 275.855 34.2114C275.376 33.8481 274.74 33.6664 273.947 33.6664C272.642 33.6664 271.478 34.1371 270.454 35.0784L269.265 32.9728C270.685 31.7176 272.428 31.0901 274.492 31.0901C276.028 31.0901 277.283 31.4451 278.257 32.1553C279.232 32.8654 279.719 34.0215 279.719 35.6234V43.3525ZM274.046 41.5193C275.219 41.5193 276.061 41.1725 276.573 40.4789V38.9925C276.061 38.2989 275.219 37.9521 274.046 37.9521C273.402 37.9521 272.865 38.1172 272.436 38.4475C272.007 38.7613 271.792 39.1989 271.792 39.7605C271.792 40.3054 272.007 40.7348 272.436 41.0486C272.865 41.3624 273.402 41.5193 274.046 41.5193Z" fill="url(#paint7_linear_58_4722)"/>
<path d="M285.986 43.3525H282.84V31.3873H285.986V35.8216H290.94V31.3873H294.086V43.3525H290.94V38.5714H285.986V43.3525Z" fill="url(#paint8_linear_58_4722)"/>
<path d="M300.232 43.3525H297.21V31.3873H300.356V38.6209L305.285 31.3873H308.456V43.3525H305.31V35.8464L300.232 43.3525Z" fill="url(#paint9_linear_58_4722)"/>
<path d="M317.203 43.6497C315.353 43.6497 313.826 43.0717 312.62 41.9157C311.414 40.7596 310.812 39.2402 310.812 37.3575C310.812 35.5904 311.39 34.1041 312.546 32.8985C313.718 31.6929 315.205 31.0901 317.005 31.0901C318.788 31.0901 320.233 31.7011 321.34 32.9232C322.446 34.1288 323 35.7143 323 37.6796V38.3732H314.106C314.205 39.1659 314.561 39.8265 315.172 40.355C315.783 40.8835 316.575 41.1477 317.55 41.1477C318.078 41.1477 318.648 41.0404 319.259 40.8257C319.887 40.611 320.382 40.322 320.745 39.9586L322.133 41.99C320.927 43.0965 319.284 43.6497 317.203 43.6497ZM319.953 36.2428C319.903 35.5656 319.631 34.9546 319.135 34.4096C318.656 33.8646 317.946 33.5921 317.005 33.5921C316.113 33.5921 315.419 33.8646 314.924 34.4096C314.428 34.9381 314.139 35.5491 314.057 36.2428H319.953Z" fill="url(#paint10_linear_58_4722)"/>
<path fill-rule="evenodd" clip-rule="evenodd" d="M29.5353 0.120094C27.4774 1.25764 22.3866 3.76638 16.7507 5.62709C11.5079 7.35797 4.71064 8.52146 1.08825 9.01037C0.456117 9.09569 -0.014969 9.63509 0.000363773 10.2721C0.125934 15.4889 0.443485 25.0023 0.903424 28.8156C1.52246 33.948 4.43191 44.3983 9.01275 51.695C13.5085 58.8561 20.0315 66.3746 29.4594 71.0939C29.7979 71.2633 30.1981 71.2633 30.5365 71.0939C39.9645 66.3746 46.4874 58.8561 50.9832 51.695C55.564 44.3983 58.4735 33.948 59.0925 28.8156C59.5525 25.0023 59.87 15.4889 59.9956 10.2721C60.0109 9.63509 59.5398 9.09569 58.9077 9.01037C55.2853 8.52146 48.488 7.35797 43.2453 5.62709C37.6093 3.76638 32.5185 1.25764 30.4606 0.120094C30.3186 0.0415878 30.1603 0 29.998 0C29.8357 0 29.6773 0.0415878 29.5353 0.120094ZM33.7698 46.556L31.6465 28.4843L47.2965 37.7953L40.9309 39.5877L45.6729 46.8934L42.7475 48.7881L38.0056 41.4824L33.7698 46.556Z" fill="url(#paint11_linear_58_4722)"/>
<defs>
<linearGradient id="paint0_linear_58_4722" x1="247.918" y1="23.2246" x2="247.918" y2="47.9972" gradientUnits="userSpaceOnUse">
<stop stop-color="#09A9E5"/>
<stop offset="1" stop-color="#2155CF"/>
</linearGradient>
<linearGradient id="paint1_linear_58_4722" x1="247.918" y1="23.2246" x2="247.918" y2="47.9972" gradientUnits="userSpaceOnUse">
<stop stop-color="#09A9E5"/>
<stop offset="1" stop-color="#2155CF"/>
</linearGradient>
<linearGradient id="paint2_linear_58_4722" x1="247.918" y1="23.2246" x2="247.918" y2="47.9972" gradientUnits="userSpaceOnUse">
<stop stop-color="#09A9E5"/>
<stop offset="1" stop-color="#2155CF"/>
</linearGradient>
<linearGradient id="paint3_linear_58_4722" x1="247.918" y1="23.2246" x2="247.918" y2="47.9972" gradientUnits="userSpaceOnUse">
<stop stop-color="#09A9E5"/>
<stop offset="1" stop-color="#2155CF"/>
</linearGradient>
<linearGradient id="paint4_linear_58_4722" x1="247.918" y1="23.2246" x2="247.918" y2="47.9972" gradientUnits="userSpaceOnUse">
<stop stop-color="#09A9E5"/>
<stop offset="1" stop-color="#2155CF"/>
</linearGradient>
<linearGradient id="paint5_linear_58_4722" x1="247.918" y1="23.2246" x2="247.918" y2="47.9972" gradientUnits="userSpaceOnUse">
<stop stop-color="#09A9E5"/>
<stop offset="1" stop-color="#2155CF"/>
</linearGradient>
<linearGradient id="paint6_linear_58_4722" x1="247.918" y1="23.2246" x2="247.918" y2="47.9972" gradientUnits="userSpaceOnUse">
<stop stop-color="#09A9E5"/>
<stop offset="1" stop-color="#2155CF"/>
</linearGradient>
<linearGradient id="paint7_linear_58_4722" x1="247.918" y1="23.2246" x2="247.918" y2="47.9972" gradientUnits="userSpaceOnUse">
<stop stop-color="#09A9E5"/>
<stop offset="1" stop-color="#2155CF"/>
</linearGradient>
<linearGradient id="paint8_linear_58_4722" x1="247.918" y1="23.2246" x2="247.918" y2="47.9972" gradientUnits="userSpaceOnUse">
<stop stop-color="#09A9E5"/>
<stop offset="1" stop-color="#2155CF"/>
</linearGradient>
<linearGradient id="paint9_linear_58_4722" x1="247.918" y1="23.2246" x2="247.918" y2="47.9972" gradientUnits="userSpaceOnUse">
<stop stop-color="#09A9E5"/>
<stop offset="1" stop-color="#2155CF"/>
</linearGradient>
<linearGradient id="paint10_linear_58_4722" x1="247.918" y1="23.2246" x2="247.918" y2="47.9972" gradientUnits="userSpaceOnUse">
<stop stop-color="#09A9E5"/>
<stop offset="1" stop-color="#2155CF"/>
</linearGradient>
<linearGradient id="paint11_linear_58_4722" x1="29.998" y1="0" x2="29.998" y2="71.221" gradientUnits="userSpaceOnUse">
<stop stop-color="#09A9E5"/>
<stop offset="1" stop-color="#2155CF"/>
</linearGradient>
</defs>
</svg>
