<svg width="28" height="28" viewBox="0 0 28 28" fill="none" xmlns="http://www.w3.org/2000/svg">
<path fill-rule="evenodd" clip-rule="evenodd" d="M21.0834 17.9061H17.125V27.3332H23.4271C25.5808 27.3332 27.3334 25.5806 27.3334 23.4269V4.57275C27.3334 2.41903 25.5808 0.666504 23.4271 0.666504H4.57294C2.41921 0.666504 0.666687 2.41903 0.666687 4.57275V23.4269C0.666687 25.5806 2.41921 27.3332 4.57294 27.3332H12.4375V17.9061H9.31252V13.2186H12.4375V10.0415C12.4375 7.45667 14.5402 5.354 17.125 5.354H21.8646V10.0415H17.125V13.2186H21.8646L21.0834 17.9061ZM18.125 12.2186H23.0451L21.9305 18.9061H18.125V26.3332H23.4271C25.0285 26.3332 26.3334 25.0284 26.3334 23.4269V4.57275C26.3334 2.97131 25.0285 1.6665 23.4271 1.6665H4.57294C2.97149 1.6665 1.66669 2.97131 1.66669 4.57275V23.4269C1.66669 25.0284 2.97149 26.3332 4.57294 26.3332H11.4375V18.9061H8.31252V12.2186H11.4375V10.0415C11.4375 6.90438 13.9879 4.354 17.125 4.354H22.8646V11.0415H18.125V12.2186Z" fill="white"/>
<path fill-rule="evenodd" clip-rule="evenodd" d="M21.0834 17.9061H17.125V27.3332H23.4271C25.5808 27.3332 27.3334 25.5806 27.3334 23.4269V4.57275C27.3334 2.41903 25.5808 0.666504 23.4271 0.666504H4.57294C2.41921 0.666504 0.666687 2.41903 0.666687 4.57275V23.4269C0.666687 25.5806 2.41921 27.3332 4.57294 27.3332H12.4375V17.9061H9.31252V13.2186H12.4375V10.0415C12.4375 7.45667 14.5402 5.354 17.125 5.354H21.8646V10.0415H17.125V13.2186H21.8646L21.0834 17.9061ZM18.125 12.2186H23.0451L21.9305 18.9061H18.125V26.3332H23.4271C25.0285 26.3332 26.3334 25.0284 26.3334 23.4269V4.57275C26.3334 2.97131 25.0285 1.6665 23.4271 1.6665H4.57294C2.97149 1.6665 1.66669 2.97131 1.66669 4.57275V23.4269C1.66669 25.0284 2.97149 26.3332 4.57294 26.3332H11.4375V18.9061H8.31252V12.2186H11.4375V10.0415C11.4375 6.90438 13.9879 4.354 17.125 4.354H22.8646V11.0415H18.125V12.2186Z" fill="url(#paint0_linear_1808_24)"/>
<defs>
<linearGradient id="paint0_linear_1808_24" x1="14" y1="0.666504" x2="14" y2="27.3332" gradientUnits="userSpaceOnUse">
<stop stop-color="white"/>
<stop offset="1" stop-color="white" stop-opacity="0"/>
</linearGradient>
</defs>
</svg>
