<svg width="32" height="24" viewBox="0 0 32 24" fill="none" xmlns="http://www.w3.org/2000/svg">
<path fill-rule="evenodd" clip-rule="evenodd" d="M30.3762 4.58242L30.375 4.5782C30.0988 3.55169 29.2869 2.73988 28.2603 2.46339L28.2564 2.46234C27.7361 2.31994 26.732 2.19577 25.4332 2.09883C24.1628 2.00402 22.6924 1.94032 21.2906 1.8977C19.8904 1.85512 18.5669 1.83381 17.593 1.82314C17.1062 1.81782 16.7072 1.81515 16.4302 1.81382C16.2917 1.81316 16.1837 1.81283 16.1105 1.81266L16 1.8125L15.9997 0.8125C15.9997 0.8125 26.0162 0.8125 28.5204 1.4978C29.891 1.86694 30.9718 2.9475 31.3407 4.31834C32.0262 6.82224 31.9999 12.0415 31.9999 12.0415C31.9999 12.0415 31.9999 17.2341 31.3409 19.7382C30.9718 21.1088 29.8912 22.1896 28.5204 22.5585C26.0162 23.2177 15.9999 23.2177 15.9999 23.2177L16 22.2177L16.1109 22.2175C16.1841 22.2174 16.2921 22.217 16.4306 22.2164C16.7077 22.2151 17.1067 22.2126 17.5936 22.2074C18.5677 22.1972 19.8914 22.1767 21.2919 22.1357C22.6939 22.0947 24.1649 22.0334 25.436 21.9422C26.7326 21.8491 27.7388 21.7297 28.2633 21.5921C29.2876 21.3154 30.0976 20.5053 30.3746 19.4809C30.6742 18.3403 30.8364 16.5126 30.9188 14.8997C30.9593 14.1072 30.9796 13.3907 30.9898 12.8724C30.9948 12.6134 30.9974 12.4044 30.9986 12.2607C30.9993 12.1889 30.9996 12.1334 30.9997 12.0962L30.9999 12.0544L30.9999 12.0364L30.9999 12.0235L31 11.9816C31 11.9443 31 11.8886 30.9997 11.8165C30.9991 11.6723 30.9975 11.4624 30.9934 11.2024C30.9853 10.682 30.9674 9.96278 30.9286 9.1677C30.8493 7.54649 30.6867 5.71643 30.3762 4.58242ZM0 12.0151C0 12.0151 0 17.2341 0.658933 19.7118C1.02807 21.0824 2.10863 22.1632 3.47948 22.5324C6.00974 23.2177 15.9999 23.2177 15.9999 23.2177L16 22.2177L15.8894 22.2175C15.8164 22.2173 15.7087 22.217 15.5705 22.2164C15.2942 22.215 14.8961 22.2124 14.4104 22.207C13.4385 22.1964 12.1175 22.1751 10.719 22.1325C9.31887 22.0899 7.84922 22.0262 6.57761 21.9313C5.27832 21.8345 4.26932 21.7103 3.7409 21.5672L3.73949 21.5668C2.71336 21.2905 1.90183 20.4792 1.62494 19.4533C1.32587 18.3277 1.1636 16.5012 1.08106 14.8833C1.04055 14.0892 1.02025 13.3702 1.0101 12.8498C1.00503 12.5898 1.0025 12.3798 1.00124 12.2355C1.00062 12.1633 1.0003 12.1075 1.00015 12.0702L1.00001 12.0281L1.00001 12.0021L1.00015 11.9603C1.0003 11.9231 1.00062 11.8677 1.00124 11.7958C1.0025 11.6521 1.00503 11.4431 1.0101 11.1842C1.02025 10.6657 1.04054 9.94925 1.08106 9.15673C1.16351 7.5438 1.32564 5.7162 1.62527 4.57564C1.90258 3.54915 2.74107 2.71324 3.73889 2.43739C4.26411 2.30007 5.2691 2.18095 6.5636 2.08802C7.8347 1.99676 9.30572 1.93547 10.7078 1.89447C12.1082 1.8535 13.4319 1.833 14.406 1.82274C14.8929 1.81761 15.292 1.81505 15.569 1.81377C15.7076 1.81313 15.8156 1.81281 15.8888 1.81265L16 1.8125L15.9997 0.8125C15.9997 0.8125 5.98337 0.8125 3.47923 1.47168C2.135 1.84057 1.02783 2.94774 0.658933 4.31834C0 6.82224 0 12.0151 0 12.0151Z" fill="white"/>
<path fill-rule="evenodd" clip-rule="evenodd" d="M30.3762 4.58242L30.375 4.5782C30.0988 3.55169 29.2869 2.73988 28.2603 2.46339L28.2564 2.46234C27.7361 2.31994 26.732 2.19577 25.4332 2.09883C24.1628 2.00402 22.6924 1.94032 21.2906 1.8977C19.8904 1.85512 18.5669 1.83381 17.593 1.82314C17.1062 1.81782 16.7072 1.81515 16.4302 1.81382C16.2917 1.81316 16.1837 1.81283 16.1105 1.81266L16 1.8125L15.9997 0.8125C15.9997 0.8125 26.0162 0.8125 28.5204 1.4978C29.891 1.86694 30.9718 2.9475 31.3407 4.31834C32.0262 6.82224 31.9999 12.0415 31.9999 12.0415C31.9999 12.0415 31.9999 17.2341 31.3409 19.7382C30.9718 21.1088 29.8912 22.1896 28.5204 22.5585C26.0162 23.2177 15.9999 23.2177 15.9999 23.2177L16 22.2177L16.1109 22.2175C16.1841 22.2174 16.2921 22.217 16.4306 22.2164C16.7077 22.2151 17.1067 22.2126 17.5936 22.2074C18.5677 22.1972 19.8914 22.1767 21.2919 22.1357C22.6939 22.0947 24.1649 22.0334 25.436 21.9422C26.7326 21.8491 27.7388 21.7297 28.2633 21.5921C29.2876 21.3154 30.0976 20.5053 30.3746 19.4809C30.6742 18.3403 30.8364 16.5126 30.9188 14.8997C30.9593 14.1072 30.9796 13.3907 30.9898 12.8724C30.9948 12.6134 30.9974 12.4044 30.9986 12.2607C30.9993 12.1889 30.9996 12.1334 30.9997 12.0962L30.9999 12.0544L30.9999 12.0364L30.9999 12.0235L31 11.9816C31 11.9443 31 11.8886 30.9997 11.8165C30.9991 11.6723 30.9975 11.4624 30.9934 11.2024C30.9853 10.682 30.9674 9.96278 30.9286 9.1677C30.8493 7.54649 30.6867 5.71643 30.3762 4.58242ZM0 12.0151C0 12.0151 0 17.2341 0.658933 19.7118C1.02807 21.0824 2.10863 22.1632 3.47948 22.5324C6.00974 23.2177 15.9999 23.2177 15.9999 23.2177L16 22.2177L15.8894 22.2175C15.8164 22.2173 15.7087 22.217 15.5705 22.2164C15.2942 22.215 14.8961 22.2124 14.4104 22.207C13.4385 22.1964 12.1175 22.1751 10.719 22.1325C9.31887 22.0899 7.84922 22.0262 6.57761 21.9313C5.27832 21.8345 4.26932 21.7103 3.7409 21.5672L3.73949 21.5668C2.71336 21.2905 1.90183 20.4792 1.62494 19.4533C1.32587 18.3277 1.1636 16.5012 1.08106 14.8833C1.04055 14.0892 1.02025 13.3702 1.0101 12.8498C1.00503 12.5898 1.0025 12.3798 1.00124 12.2355C1.00062 12.1633 1.0003 12.1075 1.00015 12.0702L1.00001 12.0281L1.00001 12.0021L1.00015 11.9603C1.0003 11.9231 1.00062 11.8677 1.00124 11.7958C1.0025 11.6521 1.00503 11.4431 1.0101 11.1842C1.02025 10.6657 1.04054 9.94925 1.08106 9.15673C1.16351 7.5438 1.32564 5.7162 1.62527 4.57564C1.90258 3.54915 2.74107 2.71324 3.73889 2.43739C4.26411 2.30007 5.2691 2.18095 6.5636 2.08802C7.8347 1.99676 9.30572 1.93547 10.7078 1.89447C12.1082 1.8535 13.4319 1.833 14.406 1.82274C14.8929 1.81761 15.292 1.81505 15.569 1.81377C15.7076 1.81313 15.8156 1.81281 15.8888 1.81265L16 1.8125L15.9997 0.8125C15.9997 0.8125 5.98337 0.8125 3.47923 1.47168C2.135 1.84057 1.02783 2.94774 0.658933 4.31834C0 6.82224 0 12.0151 0 12.0151Z" fill="url(#paint0_linear_1809_43)"/>
<path fill-rule="evenodd" clip-rule="evenodd" d="M21.139 12.0151L12.8096 7.21777V16.8125L21.139 12.0151ZM19.1354 12.0151L13.8096 8.94773V15.0825L19.1354 12.0151Z" fill="white"/>
<path fill-rule="evenodd" clip-rule="evenodd" d="M21.139 12.0151L12.8096 7.21777V16.8125L21.139 12.0151ZM19.1354 12.0151L13.8096 8.94773V15.0825L19.1354 12.0151Z" fill="url(#paint1_linear_1809_43)"/>
<defs>
<linearGradient id="paint0_linear_1809_43" x1="16" y1="0.8125" x2="16" y2="23.2177" gradientUnits="userSpaceOnUse">
<stop stop-color="white"/>
<stop offset="1" stop-color="white" stop-opacity="0"/>
</linearGradient>
<linearGradient id="paint1_linear_1809_43" x1="16.9743" y1="7.21777" x2="16.9743" y2="16.8125" gradientUnits="userSpaceOnUse">
<stop stop-color="white"/>
<stop offset="1" stop-color="white" stop-opacity="0"/>
</linearGradient>
</defs>
</svg>
